<svg xmlns="http://www.w3.org/2000/svg" width="6912" viewBox="0 0 5184 2592.000001" height="3456" version="1.0"><defs><clipPath id="a"><path d="M1060 498.105469h794.734375v1594.632812H1060Zm0 0"/></clipPath><clipPath id="b"><path d="M260.101562 763H1523v1329.738281H260.101562Zm0 0"/></clipPath><clipPath id="c"><path d="M366 1608h158v381.179688H366Zm0 0"/></clipPath><clipPath id="d"><path d="M364 1798h153v191.179688H364Zm0 0"/></clipPath></defs><g clip-path="url(#a)"><path fill="#ff914d" d="M1655.40625 498.105469h-398.660156c-98.746094 0-180.113282 71.9375-195.960938 166.121093h395.289063c91.632812 0 166.101562 74.46875 166.101562 166.078126 0 91.632812-74.46875 166.121093-166.101562 166.121093h-384.84375c33.289062 128.410157 128.03125 231.980469 251.953125 275.832031V1494.75l132.890625 66.4375v132.894531h-132.890625v132.890625h132.890625v132.875h-132.890625v132.890625h265.785156v-820.480469c154.757812-54.832031 265.765625-202 265.765625-375.496093V697.433594c0-110.089844-89.28125-199.328125-199.328125-199.328125Zm0 0"/></g><g clip-path="url(#b)"><path fill="#ff914d" d="M1456.074219 763.890625H858.085938c-146.765626 0-265.765626 119-265.765626 265.765625v66.4375h-66.453124c-146.769532 0-265.765626 119.078125-265.765626 265.765625v465.113281c0 146.6875 118.996094 265.765625 265.765626 265.765625h265.785156c146.765625 0 265.765625-119.078125 265.765625-265.765625v-465.113281c0-146.6875-119-265.765625-265.765625-265.765625h-66.457032v-66.4375c0-73.394531 59.5-132.894531 132.890626-132.894531h597.988281c36.539062 0 66.4375-29.898438 66.4375-66.457031 0-36.515626-29.898438-66.414063-66.4375-66.414063Zm0 0"/></g><path fill="#b55623" d="M658.039062 1721.792969c-5.585937-8.292969-15.476562-8.613281-24.09375-6.21875-12.445312 3.347656-20.101562-.320313-31.429687-5.585938-5.582031-2.550781-10.847656-5.421875-16.433594-7.8125-4.785156-2.234375-11.964843-3.191406-15.792969-6.859375 1.914063-6.0625 14.996094-12.125 20.101563-15.472656 12.761719-8.773438 23.132813-17.546875 31.75-30.785156 6.699219-10.210938 11.804687-23.128906 12.285156-35.410156.636719-12.441407-2.554687-29.511719-15.636719-33.976563l-10.6875-6.539063c-3.511718-17.707031-46.109374-8.292968-54.40625-4.148437-21.058593 10.527344-45.152343 34.136719-51.53125 57.265625-1.757812 6.539062-4.308593 15.472656-.800781 21.691406 3.351563 5.902344 10.691407 10.6875 16.273438 14.355469 11.648437 7.335937 32.070312 14.195313 44.832031 5.421875-10.367188 8.773438-26.484375 12.125-36.054688 21.535156-8.457031 8.292969-2.554687 17.546875 6.378907 21.375 23.296875 10.207032 46.429687 19.617188 66.371093 35.410156 8.617188 6.859376 19.945313 3.988282 30.15625 3.507813 8.296876-.316406 26.003907-2.230469 32.226563-8.929687 5.585937-6.0625.957031-12.125-3.507813-18.824219Zm0 0"/><path fill="#b55623" d="M605.070312 1748.273438c3.03125-.320313 6.0625.636718 9.09375-.480469 2.710938-1.117188 3.507813-3.667969 5.742188-5.582031 5.105469-4.308594 13.082031-.320313 18.984375-1.4375 2.234375-.476563 4.46875-1.59375 5.425781-3.828126.636719-1.433593 0-3.1875.796875-4.464843 1.117188-2.074219 2.234375-.636719 3.828125-1.433594 2.714844-1.4375-.796875-3.03125-1.59375-4.628906 1.753906-2.710938 6.0625-1.113281 8.457032-.476563-.320313-.480468-1.914063-2.074218-1.597657-2.710937.480469-1.4375 2.394531-.957031 3.191407-.480469 2.394531.957031 4.628906 3.988281 5.746093 6.222656 2.230469 4.625 3.347657 10.207032-1.757812 13.238282-4.625 2.871093-9.414063 3.191406-14.359375 5.105468-6.699219 2.710938-14.835938 3.984375-21.855469 4.464844-6.0625.476562-17.390625 3.03125-20.902344-3.507812"/><path fill="#743803" d="M642.402344 1739.5c-2.394532-1.753906-9.574219-3.511719-14.359375-2.234375l1.4375.480469c3.347656.636718 11.324219 2.390625 13.558593 5.261718.796876.957032.957032 4.308594 2.074219 4.625.480469.160157 4.46875-.957031 4.789063-1.433593 1.113281-1.277344-6.066406-5.742188-7.5-6.699219Zm6.382812-9.570312c3.347656 1.273437 7.976563 1.753906 10.6875 4.304687 2.074219 1.914063 2.554688 3.828125 3.828125 6.0625 6.382813-4.945313-10.6875-11.007813-14.515625-10.367187m2.871094-9.253907c3.191406 1.597657 9.414062 6.699219 11.804688 9.730469 1.277343-1.753906-.957032-4.785156-2.234376-6.058594-2.710937-2.394531-6.21875-3.03125-9.570312-3.671875"/><path fill="#3b2101" d="M628.042969 1737.265625c2.550781.480469 3.667969.160156 6.0625.480469 1.914062.15625 3.351562.316406 5.425781.796875 2.710938.636719 4.625 2.390625 6.539062 4.304687 1.117188.957032 1.597657 4.625 3.671876 3.511719 1.433593-1.4375-5.746094-7.5-8.457032-8.136719-3.988281-1.117187-7.339844-1.914062-13.242187-.957031m32.546875-3.828125c1.914062 1.4375 3.03125 2.710938 3.191406 3.507812.160156.957032 0 2.074219.160156 2.871094.476563-.796875 1.59375-1.753906 1.273438-2.710937-.316406-1.273438-3.507813-3.347657-4.625-3.667969m-11.007813-13.238281c1.59375 0 9.09375-.480469 8.773438 2.390625-1.433594-.636719-2.710938-1.117188-3.988281-1.273438-.796876-.160156-1.433594-.320312-2.234376-.480468-.636718-.160157-1.914062-.320313-2.550781-.636719"/><path fill="#743803" d="M628.363281 1731.203125c-3.191406-2.390625-7.179687-3.984375-11.167969-5.261719-5.746093-1.914062-12.605468-2.074218-17.710937-5.582031-3.667969-2.554687-4.945313-3.828125-9.414063-4.785156-11.484374-2.394531-14.199218-13.558594-24.25-18.503907l-.320312-4.308593c-1.914062-2.871094-1.433594-5.898438-1.914062-9.25-1.277344-7.179688-5.902344-6.222657-11.964844-4.785157-4.148438.957032-14.039063 2.710938-16.59375 6.222657-.957032 1.433593-.796875 2.390625-.796875 4.144531-.160157 4.148438.796875 7.179688-2.550781 10.050781-1.4375 1.273438-7.023438 3.1875-6.222657 5.902344.160157.957031 3.191407 1.914063 3.988281 2.390625 2.710938 1.59375 5.421876 3.351562 8.136719 4.785156 6.222657 3.351563 12.761719 5.265625 18.984375 8.292969 6.703125 3.191406 13.082032 7.5 19.464844 11.167969 6.699219 3.828125 11.964844 9.25 19.785156 11.003906 4.148438.957031 8.613282 1.597656 12.921875 1.4375 4.945313-.160156 8.933594-2.394531 13.5625-4.308594 4.945313-1.753906 12.125-4.144531 6.0625-8.613281Zm0 0"/><path fill="#c45d24" d="M850.128906 1726.261719c-2.234375-12.921875-14.039062-18.664063-25.367187-19.300781-5.105469-1.277344-10.371094-1.914063-15.316407-2.714844-8.617187-1.273438-11.167968-13.078125-15.476562-20.734375-4.148438-7.496094-11.644531-16.269531-11.964844-25.042969-.320312-7.175781 1.753906-14.515625 1.433594-22.011719-.316406-7.976562-1.273438-16.109375-3.667969-23.765625-6.382812-21.375-11.007812-44.34375-7.179687-66.835937 1.753906-10.367188 5.902344-18.820313 5.902344-29.667969 0-4.945312 1.757812-13.398438-.636719-17.703125-4.785157-8.457031-21.21875-6.0625-29.195313-6.0625-12.128906 0-27.601562-3.988281-32.546875 9.890625-2.394531 6.855469-4.46875 14.832031-5.90625 21.851562-3.191406 15.152344-10.527343 51.679688 6.703125 61.886719l15.632813 14.515625c10.53125 16.910156 11.167969 39.558594 18.191406 57.902344 3.507813 9.25 11.644531 14.675781 16.910156 22.96875 8.457031 13.398438 11.964844 31.265625 22.015625 43.386719 4.789063 5.742187 12.605469 5.421875 19.304688 6.699219.800781.160156 1.597656.320312 2.394531.636718 2.394531 2.234375 4.308594 4.628906 8.296875 5.585938 10.210938 1.914062 33.34375 6.058594 30.472656-11.484375Zm0 0"/><path fill="#b55623" d="M848.691406 1720.039062c-.476562-1.277343-4.625-6.539062-5.421875-3.988281-.640625 1.753907 3.988281 3.507813 3.191407 5.421875-.480469.957032-1.4375.480469-1.757813 1.597656-.316406.796876.480469 1.273438.320313 1.914063-.480469 3.03125-1.117188.796875-3.511719 1.277344-2.074219.316406-2.074219.957031-1.113281 2.710937.636718 1.273438 1.433593.957032 1.59375 2.550782.160156.796874 0 1.914062-.320313 2.710937-1.273437 3.191406-3.667969 1.753906-6.378906 1.117187-1.917969-.476562-4.308594-.476562-6.222657-1.277343-3.671874-1.753907-4.308593-6.21875-9.09375-6.21875-2.234374 0-3.511718.320312-5.585937-1.117188-1.753906-1.277343-2.871094-3.347656-5.105469-4.304687-4.148437-1.757813-7.816406 1.914062-11.964844 1.433594-4.945312-.636719-6.542968-7.496094-8.617187-11.324219-2.234375-4.308594-4.785156-8.453125-6.699219-12.921875-1.4375-3.507813-2.234375-7.335938-3.828125-10.6875-3.832031-7.816406-10.054687-13.238282-17.871093-17.226563l-1.117188-.316406c1.4375 1.433594 2.714844 2.871094 4.148438 4.464844 3.351562 4.148437 5.425781 7.65625 7.976562 12.441406 2.554688 4.785156 4.628906 11.007813 6.863281 15.949219 3.988281 8.613281 6.21875 19.78125 15.472657 24.726562 3.832031 2.074219 8.296874 1.753906 12.445312 2.871094 2.394531.636719 4.148438-.160156 5.746094 1.753906 1.433594 1.59375 1.753906 3.828125 3.507812 4.945313 3.828125 2.710937 11.328125 3.1875 15.953125 3.1875 4.628907 0 9.894531.480469 13.882813-2.070313 7.976562-5.742187 6.0625-11.804687 3.507812-19.621094Zm0 0"/><path fill="#743803" d="M820.453125 1731.203125c2.074219 1.757813 2.554687 4.308594 2.074219 7.019531-.160156.636719-.957032 1.753906-.636719 2.394532.476563.636718 2.550781.476562 3.191406.476562 1.113281 0 2.230469.320312 3.347657.320312.640624 0 1.117187.316407 1.117187-.320312 0-.320312-.796875-.957031-.957031-1.433594-.476563-1.757812-.636719-3.03125-1.914063-4.46875-.957031-1.117187-1.914062-1.753906-3.191406-2.710937-.796875-.476563-2.074219-1.433594-3.03125-1.433594m25.367187 1.273437c-1.117187-1.59375-1.914062-2.871093-3.828124-3.507812h-.320313c2.871094.957031 3.511719 5.742188 2.234375 7.976562-.476562.796876-1.277344 1.433594-1.433594 2.230469-.320312.957031-.640625 1.117188.316406 1.277344 1.4375 0 3.828126-1.4375 4.628907-2.710937 1.117187-1.597657-.640625-3.828126-1.597657-5.265626Zm.640626-7.976562c2.871093 1.117188 2.871093 3.191406 3.03125 4.945312.15625.800782.15625 1.757813.15625 2.714844 0 .957032.320312 1.59375.960937.476563 1.433594-3.03125-.960937-7.816407-4.148437-8.136719Zm-1.4375-6.21875c1.117187.160156 3.03125 2.074219 3.828124 2.710938.320313-1.277344-2.871093-2.871094-3.828124-2.710938Zm-31.75 14.675781c-.160157-1.117187-.160157-2.871093-1.277344-3.667969-1.273438-.957031-2.390625-.480468-3.828125-.160156-.636719.160156-1.277344.476563-1.914063.636719-1.59375.636719-3.351562.480469-5.105468.480469l-.957032.316406c2.710938 1.914062 6.542969.640625 9.574219 1.4375 1.914063.476562 3.1875 4.144531 4.625 5.582031 0-1.277343-.796875-3.351562-1.117187-4.625Zm0 0"/><path fill="#3b2101" d="M824.761719 1735.03125c.957031.957031 1.117187 2.871094.796875 4.148438-.160156.320312-.320313.796874-.476563 1.117187-.160156.320313-.480469.476563-.160156.796875.316406.160156.957031.160156 1.273437.160156h1.4375c.320313-.160156-.160156-.957031-.160156-1.117187-.160156-.636719-.316406-1.433594-.636718-2.074219-.480469-1.117188-1.4375-2.230469-2.074219-3.03125m21.058593-2.710938c.160157.640626.480469 1.4375.640626 2.074219.15625.636719.15625 1.117188.15625 1.753907 0 .957031-.15625 2.074218-.636719 2.871093.636719 0 .957031-.957031 1.4375-1.433593.476562-.480469.636719-.796876.316406-1.4375-.476563-1.273438-.796875-2.871094-1.914063-3.828126m4.308594-4.625s.160156 0 0 0v-.320312Zm.957032 1.753907c-.160157-.636719-.636719-1.117188-.796876-1.59375 0 .320312.160157.636719.160157.796875 0 .636718 0 1.277344.160156 1.914062.15625.480469 0 .957032.15625 1.4375.160156-.800781.480469-1.914062.320313-2.554687Zm0 0"/><path fill="#743803" d="M830.984375 1726.101562c.476563.160157.796875.476563 1.117187.636719.476563.320313 1.117188.796875 1.753907.957031 1.117187.480469 2.394531.636719 3.511719.636719 1.273437 0 2.550781 0 3.828124.160157-.320312-.316407-.796874-.476563-1.277343-.796876-.320313-.160156-.636719-.320312-1.117188-.476562-.957031-.320312-1.914062 0-2.871093-.160156-1.753907-.160156-3.191407-1.277344-4.945313-1.277344m13.878906-2.074219c-.320312-.160156-.636719-.320312-.957031-.476562-1.117188-.640625-2.234375-.480469-3.351562-.640625-1.273438-.160156-2.710938-.316406-3.988282-.636719-.316406 0-.796875-.160156-1.117187-.160156-.316407 0-.636719 0-.957031-.160157v.160157c.957031.480469 1.914062 1.117187 3.03125 1.277343.957031.160157 2.074218.160157 3.03125.160157 1.117187 0 2.074218 0 3.191406.316406.640625.160156 1.277344.320313 1.914062.640625-.316406-.320312-.636718-.480469-.796875-.480469Zm-11.328125-9.570312c.796875.796875 2.234375 1.4375 3.191406 1.753906.796876.160156 1.597657.160156 2.394532 0 .476562 0 .957031.160156 2.390625.640625.480469.15625.960937.316406 1.4375.476562.320312.160157.480469.320313.636719.320313-.316407-.480469-1.273438-.796875-1.753907-1.117187-.796875-.480469-1.433593-.957032-2.234375-1.117188-1.273437-.160156-2.390625 0-3.667968-.320312-.636719 0-1.597657-.476563-2.394532-.636719m-61.582031-126.171875-3.191406-3.1875c-7.179688.160156-15.476563 3.1875-21.539063 7.175781-7.65625 5.105469-7.65625 12.761719-7.179687 21.214844.796875 11.644531 5.425781 22.171875 7.179687 33.65625.636719 3.988281 1.117188 10.210937 4.945313 4.148437 1.914062-3.191406 1.914062-8.933594 4.785156-11.324218 2.074219-1.597657 3.511719-.800782 5.585937-2.714844 1.914063-1.753906 3.191407-5.101563 3.828126-7.496094 1.4375-5.101562.796874-11.003906.796874-16.269531 0-2.230469 0-3.667969.957032-5.261719.960937-1.4375 3.035156-2.074219 3.832031-4.148438 1.753906-4.308593 1.273437-11.484374 0-15.792968Zm0 0"/><path fill="#d36c28" d="M898.949219 1369.441406c-4.945313-19.140625-34.78125-22.011718-50.414063-22.332031-22.019531-.476563-42.121094 11.007813-63.820312 9.730469-7.816406-.476563-13.402344-4.785156-20.582032-6.699219l-.636718 1.753906c-1.914063 5.265625-4.625 13.878907-8.296875 18.023438-3.507813 3.988281-7.339844 11.328125-10.050781 15.953125-6.859376 12.121094-12.285157 17.546875-24.570313 27.59375-15.15625 12.28125-29.195313 25.203125-46.265625 34.613281-24.410156 13.558594-53.128906 18.664063-78.976562 29.347656-44.832032 18.664063-92.855469 50.886719-115.191407 95.546875-8.296875 16.75-15.636719 38.121094-12.445312 56.945313 2.554687 15.152343 13.402343 37.484375 26.167969 46.414062 17.707031 12.445313 46.425781 9.414063 66.847656 8.617188 20.582031-.957031 41.324218-7.660157 60.148437-15.632813 29.835938-12.601562 56.796875-30.308594 84.238281-47.535156 24.253907-15.152344 51.054688-29.347656 77.539063-40.515625 16.753906-7.175781 32.230469-17.863281 45.152344-30.941406 10.847656-11.007813 21.21875-24.566407 27.921875-38.441407 2.871094-5.742187 4.304687-11.804687 5.582031-18.027343 2.710937-12.757813 7.339844-25.839844 11.648437-38.121094 6.0625-17.386719 14.996094-33.976563 20.578126-51.839844 3.511718-10.6875 8.296874-23.128906 5.425781-34.453125Zm0 0"/><path fill="#f4f6f2" d="M899.109375 1357.636719c-1.753906-8.613281-7.660156.957031-15.476563-2.710938-4.148437-1.914062-10.210937-4.464843-14.835937-4.148437-5.265625.320312-15.796875 5.585937-17.230469 10.847656l8.453125 27.117188c3.671875 11.484374 3.671875 30.625-1.117187 42.269531-2.550782 6.0625-5.902344 12.601562-10.050782 17.546875-3.03125 3.507812-6.859374 5.261718-8.613281 9.726562 12.125 1.4375-10.371093 26-12.605469 29.511719-2.871093 4.304687-5.742187 7.496094-5.582031 11.484375.316407 4.945312 3.1875 6.539062-.160156 12.28125-3.351563 6.21875-9.253906 11.324219-13.402344 16.90625-5.425781 7.179688-9.734375 15.3125-13.882812 23.449219-6.0625 11.804687-14.039063 24.085937-22.015625 34.292969 9.253906 1.914062 33.664062-12.917969 40.363281-18.023438 12.445313-9.410156 19.148437-17.546875 29.835937-28.871094 6.542969-7.019531 10.050782-15.949218 14.519532-24.246094 5.425781-10.367187 10.53125-21.214843 13.082031-32.855468 2.074219-9.730469 2.394531-20.578125 6.703125-29.671875 5.105469-10.527344 10.6875-19.300781 12.921875-30.941407 2.710937-15.632812 14.835937-34.457031 9.09375-63.964843Zm0 0"/><path fill="#c45d24" d="M860.976562 1355.085938c-14.996093-3.511719-33.820312-1.117188-48.980468-.636719-8.453125.316406-16.589844 1.273437-24.886719 2.390625-16.59375 2.550781-9.09375-15.949219-23.453125-6.699219l-10.371094 21.691406c-7.976562 11.964844-17.390625 24.246094-28.078125 33.816407-5.746093 5.105468-10.691406 9.570312-16.273437 17.707031 7.496094 3.347656 13.398437-3.667969 20.261718-5.425781 2.550782 7.179687-15.15625 23.769531 1.433594 20.898437 12.765625-2.234375 25.527344-10.6875 36.058594-17.546875 2.394531 6.699219-6.382812 19.300781 2.710938 21.214844 10.851562 2.074218 23.292968-13.398438 31.429687-17.867188 2.234375 2.394532.800781 6.859375 3.03125 8.773438 3.351563 2.714844 9.734375-.957032 12.605469-2.230469 5.105468-2.394531 10.371094-5.585937 14.519531-9.570313 2.390625-2.394531 3.988281-5.585937 6.859375-7.179687 2.234375 7.496094 12.765625 1.117187 16.910156-1.753906 8.296875-5.582031 7.980469-23.289063 11.648438-32.222657 4.46875-12.121093 9.414062-21.851562-5.425782-25.359374Zm0 0"/><path fill="#df7334" d="m909.957031 1202.117188-1.273437-1.277344c-7.980469-3.667969-7.5-6.21875-15-2.390625-8.453125 4.464843-14.359375 13.71875-20.582032 22.648437-4.144531 5.902344-16.589843 12.921875-22.492187 17.226563-6.863281 5.105469-20.105469 2.074219-28.402344 3.671875-9.730469 1.914062-16.910156 7.8125-22.8125 15.628906-5.425781 7.179688-11.648437 12.28125-17.710937 18.664062-12.921875 13.875-15.953125 39.078126-16.75 57.261719-.480469 13.238281-5.425782 26-12.125 37.324219-1.117188 1.757812-7.820313 11.328125-7.5 12.601562.636718 2.710938 4.46875.160157 7.5-.796874 1.433594-.476563 2.710937.636718 2.710937 2.074218 0 1.277344-.320312 2.550782-.320312 3.988282 0 1.117187.796875 2.074218 1.914062 2.074218 6.222657.316406 16.753907-7.019531 22.496094-10.210937.957031-.476563 2.234375-.316407 2.714844.640625 2.710937 3.984375 2.550781 9.089844 2.390625 13.875 0 .796875.480468 1.597656 1.277344 1.914062 8.457031 3.667969 16.113281-1.914062 23.613281-5.261718 1.277343-.640626 2.710937.15625 2.871093 1.433593.476563 3.03125.160157 6.539063 0 9.570313 0 .957031.476563 1.753906 1.4375 2.074218 10.050782 3.03125 20.101563-6.859374 27.441407-13.078124 1.117187-.800782 2.710937-.480469 3.1875.796874 2.554687 5.742188-.316407 10.527344 10.210937 8.613282 4.628906-.796875 6.542969-6.0625 9.574219-9.570313 1.117187-1.277343 3.03125-.796875 3.511719.796875 2.074218 7.019532 10.210937 5.742188 13.242187.796875 3.507813-5.582031 6.0625-11.960937 8.453125-17.863281 5.585938-13.71875 8.296875-27.753906 8.457032-42.75.320312-32.378906 12.125-57.742188 22.496093-87.726562 6.0625-15.792969 1.914063-31.585938-10.53125-42.75Zm0 0"/><path fill="#f4f6f2" d="M923.996094 1224.925781c-.636719-7.972656-2.390625-17.542969-9.25-22.011719-6.222656-3.988281-10.851563-7.175781-15.957032-1.433593l-.160156 4.304687c-2.550781 8.933594-5.582031 18.503906-11.167968 26-4.464844 5.902344-11.167969 10.050782-16.113282 15.792969-7.976562 9.410156-6.382812 15.949219-6.0625 27.117187.320313 13.078126-7.65625 25.199219-14.996094 35.566407-5.425781 7.660156-10.210937 26 4.785157 13.402343 3.03125 8.613282-4.464844 22.96875-4.308594 32.539063 2.714844.957031 5.265625-.796875 7.339844-2.871094 1.4375 8.292969-.636719 19.777344-.636719 28.550781 0 3.191407.957031 21.375 7.179688 12.28125 2.074218 1.277344 5.265624 5.425782 7.816406 5.742188 3.988281.480469 9.414062-5.261719 11.488281-8.132812 4.464844-5.902344 16.59375-15.3125 16.433594-22.8125-.640625-22.011719-1.117188-27.753907.957031-45.140626 1.914062-15.628906 4.785156-35.25 10.527344-49.925781 6.222656-15.628906 13.402344-31.582031 12.125-48.96875Zm0 0"/><g clip-path="url(#c)"><path fill="#d36c28" d="M516.042969 1721.15625c-4.308594-14.835938-17.230469-37.964844-24.410157-51.363281-6.382812-11.800781-8.933593-12.441407-9.09375-26-.160156-7.972657.957032-15.472657 3.03125-23.285157.957032-3.671874 3.667969-8.773437-.640624-11.007812l-1.273438-.636719c-5.265625 2.074219-7.660156 8.613281-11.488281 12.441407-3.351563 3.347656-6.859375 5.902343-9.890625 9.570312-7.980469 9.886719-14.042969 21.691406-20.261719 32.539062-11.011719 19.140626-15.160156 40.195313-23.613281 60.292969-12.925782 30.464844-18.1875 62.6875-26.964844 94.589844-2.871094 10.527344-5.421875 21.371094-11.328125 30.625-7.179687 11.164063-12.601563 23.605469-13.558594 37.003906-.800781 11.804688 1.433594 24.246094 5.105469 35.410157 2.390625 7.339843 5.902344 14.359374 7.496094 22.015624 1.4375 7.015626.320312 14.355469.796875 21.371094 4.46875.796875 7.339843-2.230468 10.691406-4.304687 4.308594 7.015625-.480469 22.011719-3.988281 28.710937 11.328125-1.914062 24.886718-16.109375 34.300781-22.652344 10.210937-7.175781 21.378906-16.269531 28.242187-26.953124 9.570313-14.675782 16.910157-29.511719 19.78125-46.738282 1.117188 3.667969 1.597657 7.65625 2.710938 11.324219 14.359375-17.703125 19.148438-39.078125 23.773438-60.769531 4.46875.15625 6.859374 5.101562 9.890624 7.8125 9.253907-7.65625 11.808594-31.421875 13.402344-42.585938 2.074219-14.996094-.636718-30.464844 1.117188-45.140625.640625.316407 1.277344.796875 1.753906 1.273438 6.0625-5.421875-3.1875-35.410157-5.582031-43.542969Zm0 0"/></g><g clip-path="url(#d)"><path fill="#fcfded" d="M392.078125 1816.699219c2.710937 5.902343 4.945313 11.007812 5.902344 17.546875.476562 3.828125-.480469 14.675781 2.871093 17.867187 4.945313 4.941407 8.457032-2.871093 10.6875-6.859375 3.351563-6.222656 5.585938-11.644531 11.488282-15.792968 2.714844 2.871093 1.914062 8.453124 4.785156 11.164062 5.425781 5.105469 12.605469-2.390625 16.59375-5.898438 4.945312-4.46875 9.894531-9.414062 14.199219-14.515624 4.945312-5.902344 7.019531-13.878907 11.648437-19.621094 3.828125 6.699218-4.785156 33.019531 7.65625 29.03125 5.90625-1.914063 11.488282-12.121094 15.957032-16.75 4.625-4.941406 9.730468-9.570313 14.359374-14.671875 10.367188 12.28125 9.730469 39.078125 5.902344 53.753906-2.871094 11.164063-7.339844 20.574219-14.519531 29.667969-3.988281 5.101562-9.574219 14.035156-14.679687 17.703125-1.914063 1.277343-4.625.800781-6.378907 2.871093-3.988281 4.46875-3.351562 13.398438-6.382812 18.664063-3.191407 5.582031-7.816407 11.007813-11.488281 17.226563-8.136719 13.878906-19.78125 27.433593-33.503907 35.890624-13.242187 8.132813-24.089843 14.992188-39.886719 15.152344 1.117188-7.179687 5.585938-14.675781 3.832032-21.851562-3.992188.476562-8.457032 2.710937-11.96875 4.144531-2.871094-11.164063.796875-23.765625-1.433594-35.25-1.757812-8.773437-5.105469-14.835937-9.894531-21.851563-.636719.476563-1.273438.957032-1.914063 1.433594-2.390625-6.378906-.796875-18.34375-.636718-25.359375.476562-10.527343 1.277343-21.375 6.539062-30.46875 8.136719-14.671875 12.925781-25.042969 20.265625-43.226562"/></g><path fill="#d4d7d1" d="M507.746094 1800.269531c-4.46875 2.074219-8.617188 7.339844-12.761719 10.210938-.160156.160156-.320313.320312-.480469.476562l-7.816406 10.6875c-.320312.320313-.320312.796875-.320312 1.277344.480468 10.527344-3.828126 22.808594-9.574219 31.421875-6.0625 8.933594-14.355469 14.039062-22.015625 21.214844-1.277344 1.117187-2.871094 2.710937-4.148438 4.308594-.796875 1.113281-.320312 2.710937.957032 3.027343 4.308593 1.277344-4.148438 13.558594-5.425782 15.953125-4.625 7.816406-8.933594 15.789063-14.199218 23.128906-1.914063 2.710938-10.527344 12.441407-8.933594 16.109376 1.597656 3.667968 5.425781 2.234374 8.933594.796874 1.277343-.636718 2.875.480469 2.714843 1.914063-.640625 6.0625-5.746093 13.71875-8.296875 18.503906-3.351562 6.21875-6.0625 14.992188-10.371094 21.214844-.957031 1.433594.320313 3.347656 1.914063 3.03125 8.617187-1.753906 18.667969-11.964844 24.730469-16.589844 8.136718-6.0625 14.199218-10.847656 20.101562-19.140625 5.746094-8.136718 9.890625-14.835937 13.242188-24.085937 1.597656-4.148438 2.554687-9.410157 3.988281-13.71875.480469-1.59375 2.714844-1.753907 3.511719-.316407 0 0 0 .15625.160156.15625.476562.957032 1.59375 1.277344 2.390625.957032 8.617187-3.507813 16.433594-21.371094 19.785156-28.390625 4.148438-8.613281 7.976563-18.503907 8.457031-28.234375.476563-9.570313 7.335938-27.113282 7.335938-36.683594 0-9.253906-8.292969-8.296875-11.167969-15.632812-.636719-1.597657-1.753906-2.074219-2.710937-1.597657Zm0 0"/><path fill="#c45d24" d="M525.457031 1736.46875c-1.4375-9.570312-4.148437-20.097656-8.777343-28.710938-7.179688-13.082031-18.027344-24.726562-25.046876-37.804687l-1.117187 7.816406c.636719 8.613281-6.222656 12.121094-7.816406 19.9375-1.597657 7.339844 2.074219 10.367188 3.988281 16.589844 3.347656 11.164063 3.347656 24.882813.796875 36.046875-1.597656 6.542969-2.554687 13.558594-5.425781 19.621094-1.433594 3.03125-3.667969 5.421875-4.464844 8.773437 13.082031 2.234375-10.691406 39.078125-5.425781 49.445313 2.394531 4.785156 12.761719.160156 18.507812 1.117187 6.859375 1.117188 10.847657 3.667969 15.15625 10.050781 3.828125 5.902344 9.574219 21.054688 10.847657 7.335938 1.277343-14.035156 7.660156-34.929688 7.820312-48.96875.15625-11.324219-1.277344-23.445312-3.988281-34.292969 1.273437.160157 4.945312 4.464844 6.539062 4.945313 3.351563-7.339844-.320312-23.925782-1.59375-31.902344Zm0 0"/><path fill="#c3c6c1" d="m710.207031 1591.476562-3.03125.636719c-3.667969 11.007813-18.507812 20.417969-29.515625 22.808594-9.09375 1.914063-16.273437.320313-24.886718-.636719-10.691407-1.117187-10.53125 6.378906-17.074219 11.644532-6.539063 5.261718-17.230469 3.667968-21.855469 11.960937-3.351562 5.742187-3.667969 14.199219-6.222656 20.417969-2.550782 6.0625-6.222656 11.964844-10.210938 17.226562-1.59375 2.074219-9.09375 8.613282-8.933594 11.007813.636719 7.496093 31.109376-14.195313 35.738282-16.75 15.632812-8.613281 31.90625-16.109375 47.382812-24.882813 11.808594-6.699218 31.429688-16.90625 37.652344-29.988281 3.671875-6.539063 2.394531-16.109375.957031-23.445313Zm0 0"/><path fill="#ea853a" d="M711.007812 1425.585938c-1.597656-7.015626-9.574218 3.191406-13.882812 5.902343-8.457031 5.265625-13.242188 9.414063-22.015625 14.039063-18.03125 9.410156-38.609375 16.585937-58.234375 21.691406-26.804688 7.019531-51.054688 15.953125-74.667969 30.464844-23.292969 14.355468-47.222656 33.5-61.582031 57.265625-6.542969 10.847656-9.574219 22.96875-12.765625 34.929687-1.433594 5.425782-6.539063 32.382813-.476563 36.050782l6.539063-2.394532c25.367187 2.074219 37.972656-40.355468 49.140625-57.898437 1.914062-2.871094 4.148438-7.976563 6.699219-10.210938 4.789062-4.144531 4.628906-.476562 10.054687.480469 8.136719 1.273438 14.675782-10.527344 19.621094-16.269531 8.457031-9.890625 18.03125-19.140625 29.199219-26.160157 2.871093-1.753906 13.082031-7.976562 16.113281-6.699218 3.351562 1.433594 1.117188 6.0625 6.0625 6.699218 4.148438.476563 5.582031-3.667968 7.65625-6.0625 5.265625-6.21875 11.011719-11.960937 17.230469-17.386718 11.808593-10.683594 25.527343-18.820313 39.410156-26.636719 9.570313-5.421875 20.421875-10.046875 29.195313-16.90625 4.308593-3.511719 8.296874-13.878906 6.703124-20.898437Zm0 0"/><path fill="#c45d24" d="m698.878906 1537.882812-10.210937-7.339843c-8.773438 1.753906.800781 28.234375-2.070313 36.210937-2.875 8.292969-6.703125 19.9375-2.394531 28.390625 6.0625 11.644531 20.738281 15.632813 19.941406-1.277343-.316406-6.378907-1.433593-11.644532 1.757813-17.542969 3.828125-7.019531 11.007812-12.285157 13.398437-19.941407 4.789063-14.195312-9.09375-18.5-20.421875-18.5Zm0 0"/><path fill="#d4d7d1" d="M893.207031 1279c-4.148437 2.871094-8.777343 6.0625-11.328125 10.527344-2.394531 4.464844-4.785156 13.558594-3.191406 18.503906 0 .160156.320312.316406.476562.160156l3.671876-3.671875c.160156-.15625.476562-.15625.476562 0 .957031 2.074219-1.753906 6.382813-2.390625 8.296875-.796875 2.390625-1.4375 4.945313-1.597656 7.65625-.316407 7.816406 3.511719-.636718 6.382812-2.394531.160157-.15625.480469 0 .480469.160156.957031 3.511719-.957031 8.136719.957031 11.484375 0 .160156.15625.160156.316407.160156 1.757812-.636718 3.511718-3.03125 4.789062-4.625.15625-.160156.476562-.160156.476562 0 .796876 1.753907.160157 5.421876 0 7.175782-.320312 3.511718-.636718 7.5-.320312 11.167968.160156 2.230469 1.917969 9.570313 4.949219 5.742188 1.753906-2.234375 1.433593-6.222656 1.914062-8.773438.957031-5.421874 1.433594-10.847656 1.753907-16.429687.796874-16.109375 6.542968-30.464844 11.488281-45.617187 1.59375-4.945313 3.347656-10.050782 4.625-15.15625.480469-2.230469.796875-4.464844 1.277343-6.699219 0-.316407-.480468-.476563-.636718-.160157-4.628906 9.414063-16.273438 16.75-24.570313 22.492188Zm0 0"/><path fill="#f4f6f2" d="M861.296875 1252.042969c-.476563-2.074219-3.667969-1.433594-5.582031-1.753907-4.789063-1.277343-10.53125-2.710937-15-.160156l-1.59375 3.191406c1.117187 3.347657.476562 2.550782 2.550781 5.421876 1.597656 1.914062 5.585937 7.335937 7.976563 8.453124 4.46875 1.914063 8.457031-6.539062 10.371093-9.570312.796875-1.117188 1.597657-4.464844 1.277344-5.582031Zm0 0"/><path fill="#24221d" d="m860.660156 1250.765625-.160156-.15625c-3.671875-3.511719-12.445312-3.191406-17.070312-1.914063-4.308594 1.273438-5.425782 4.941407-2.714844 8.132813 6.222656 7.019531 20.261718 6.0625 20.582031-4.464844 0-.320312-.160156-.640625-.320313-.957031Zm0 0"/><path fill="#f4f6f2" d="m850.765625 1252.042969-.316406-.320313c-4.308594-4.464844-11.808594 2.554688-5.746094 4.785156 2.074219.800782 6.222656.640626 7.976563-.796874 2.554687-1.914063.960937-3.667969-1.914063-3.667969Zm0 0"/><path fill="#f4f6f2" d="M850.449219 1249.332031c-.800781 1.914063 2.871093 2.234375 4.148437 1.914063.15625 0 .316406-.160156.476563-.320313.320312-.316406.160156-.957031-.320313-1.117187-1.433594-.796875-3.828125-1.753906-4.304687-.476563Zm0 0"/><path fill="#24221d" d="M862.09375 1250.925781c-.316406-.957031-1.914062-.636719-1.59375.480469.476562 1.273438-.320312 2.871094-.640625 4.144531-.636719 1.757813-1.433594 3.191407-2.390625 4.785157-1.753906 2.554687-3.988281 5.425781-7.019531 6.382812-1.277344-.957031-2.554688-1.597656-3.671875-2.710938-1.273438-1.277343-2.234375-3.03125-3.191406-4.628906-2.230469-3.984375-4.304688-8.132812-3.347657-12.757812.160157-1.117188-1.4375-1.4375-1.597656-.480469-.957031 4.625.480469 8.773437 2.714844 12.921875.957031 1.753906 1.914062 3.507812 3.1875 5.101562 1.4375 1.757813 3.351562 2.714844 4.949219 4.148438.15625.160156.476562.160156.796874.160156h.476563c3.511719-.957031 6.0625-4.148437 8.136719-7.179687 1.117187-1.753907 2.074218-3.507813 2.714844-5.421875.476562-1.753906 1.117187-3.347656.476562-4.945313Zm0 0"/><path fill="#4b2610" d="m789.820312 1278.839844-.796874-1.914063c-13.402344-3.667969-17.070313-4.144531-30.953126-4.304687-7.976562-.160156-18.027343-2.074219-16.273437 8.929687 1.4375 9.09375 9.734375 17.707031 14.839844 25.203125 5.105469 7.339844 12.125 21.535156 19.941406 11.007813 4.628906-6.222657 5.746094-14.835938 8.296875-22.011719 2.074219-5.265625 5.425781-11.167969 4.945312-16.910156Zm0 0"/><path fill="#e07e31" d="M777.855469 1272.140625c-5.742188-1.117187-11.488281-.957031-17.390625-.957031-3.828125 0-7.816406-.476563-11.488282 0-2.390624.320312-6.0625 2.234375-6.378906 5.105468 2.871094-2.234374 5.582032-2.710937 8.933594-3.191406 3.988281-.636718 9.890625.480469 13.878906.480469 3.828125 0 7.660156 0 11.488282.476563 2.550781.320312 5.425781 1.4375 7.976562 1.4375-1.59375-1.753907-4.46875-2.871094-7.019531-3.351563Zm0 0"/><path fill="#ea853a" d="M892.089844 1204.828125c.160156-1.117187-1.117188-4.144531-1.4375-5.101563-5.902344.796876-10.050782 9.089844-14.199219 12.757813-6.0625 5.425781-10.210937 12.761719-16.433594 17.867187-18.347656 15.472657-43.554687 0-61.902343 27.753907-3.511719 5.261719-8.296876 9.886719-12.921876 14.355469-6.0625 5.742187-4.46875 7.65625 3.347657 7.976562 5.425781.15625 8.777343-1.597656 13.882812-3.671875 3.03125-1.273437 8.296875-4.144531 11.488281-1.753906 2.390626 1.753906 1.753907 5.742187 2.230469 8.613281 3.988281-1.753906 3.03125-8.132812 6.222657-10.527344 12.125 7.339844 8.617187-11.324218 3.671874-16.429687-3.03125-3.03125-4.949218-3.03125-2.074218-7.65625 2.390625-3.988281 5.742187-3.828125 9.890625-3.828125 3.667969 0 7.976562.640625 11.488281 0 4.464844-.796875 8.136719-3.828125 12.601562-5.421875 3.988282-1.4375 7.179688-4.785157 10.851563-6.0625 4.625-1.433594 5.105469.640625 8.296875-3.988281 5.261719-7.496094 9.410156-16.429688 15.472656-23.445313Zm0 0"/><path fill="#24221d" d="M900.226562 1192.070312c-3.988281-1.277343-6.382812 1.273438-8.136718 4.785157-1.597656 3.507812-4.46875 8.613281.636718 10.367187 4.945313 1.753906 8.777344-1.117187 12.605469-3.351562l3.03125-2.390625c.160157-3.828125-4.628906-8.296875-8.136719-9.410157Zm0 0"/><path fill="#35332d" d="M904.054688 1197.492188c-.476563-.160157-.796876 0-1.117188.476562-1.277344 2.074219-3.988281 1.914062-6.0625 2.714844-2.710938.796875-3.191406 3.828125 0 4.941406 3.667969 1.117188 13.402344-4.304688 7.5-7.8125-.160156-.320312-.160156-.320312-.320312-.320312Zm0 0"/><path fill="#df7334" d="M830.824219 1322.546875c0-5.425781-2.234375-10.6875-4.308594-15.632813-2.234375-5.105468-3.507813-10.527343-5.902344-15.632812-.796875-1.59375-1.59375-3.507812-2.871093-4.945312-.957032-1.113282-2.394532-1.753907-3.351563-3.027344l-1.4375-.957032c-5.582031-3.351562-13.878906-4.46875-20.101563-5.425781-4.785156-.796875-9.730468-1.59375-14.675781-1.753906-7.023437-.160156-12.128906-1.117187-22.019531 1.753906-1.753906.480469-4.464844 1.597657-5.105469 3.511719-1.277343 3.984375 4.46875 11.640625 6.382813 14.671875 2.550781 3.988281 5.265625 7.976563 8.613281 11.324219 5.585937 5.425781 12.765625 9.253906 19.625 12.761718 8.457031 4.308594 16.433594 9.410157 25.527344 12.28125 4.308593 1.277344 11.964843 3.828126 16.273437 1.757813 4.148438-1.914063 3.351563-7.179687 3.351563-10.6875Zm0 0"/><path fill="#d8d6d6" d="M811.839844 1297.980469c-1.117188-2.550781-5.425782-9.730469-5.425782-9.730469-2.074218-1.914062-4.628906-2.070312-7.339843-2.710938-3.03125-.796874-6.0625-2.074218-9.253907-2.550781-5.105468-.796875-10.050781-1.753906-15.316406-1.753906-3.828125 0-8.453125-1.4375-9.730468 3.03125-1.117188 3.828125 0 7.8125 2.234374 11.003906 6.378907 9.25 17.070313 13.238281 28.398438 18.980469 4.464844 2.234375 26.484375 11.007812 27.28125 10.371094 1.117188-.640625-8.933594-22.015625-10.847656-26.640625Zm0 0"/><path fill="#4b2610" d="M818.378906 1329.722656c-16.910156-7.175781-35.257812-13.078125-49.617187-25.042968-3.03125-2.550782-5.425781-5.582032-7.660157-8.613282-1.59375-2.230468-3.988281-4.304687-4.464843-7.015625-.480469-2.394531.316406-5.265625 2.074219-7.019531 1.914062-1.914062 7.65625-5.265625 10.050781-7.335938-3.828125 0-8.777344 1.273438-12.125 1.914063-4.148438.796875-5.902344 2.070313-5.746094 6.378906.320313 6.0625 3.351563 11.484375 7.339844 16.109375 3.03125 3.507813 5.746093 7.496094 9.253906 10.6875 2.871094 2.550782 6.382813 4.148438 9.734375 5.742188 7.65625 3.507812 14.835938 7.496094 22.175781 11.804687 6.0625 3.507813 12.125 8.292969 19.625 7.972657 1.433594 0 6.378907 0 6.378907-2.070313 0-1.914063-5.582032-2.871094-7.019532-3.511719Zm0 0"/><path fill="#37281c" d="M807.050781 1299.097656c-4.625-1.277344-9.890625.480469-14.039062-2.871094-1.753907-1.433593-1.277344-2.234374-3.828125-1.914062-2.871094.320312-3.03125 1.277344-5.265625-1.117188-1.277344-1.433593-.636719-1.59375-3.191407-1.914062-.957031 0-3.03125.480469-3.828124-.160156-.636719-.476563-.480469-1.59375-.796876-2.070313-1.4375-1.4375-2.234374-.160156-4.46875-.160156-1.914062 0-2.550781-1.277344-4.148437-1.597656-.320313 5.585937 6.859375 9.414062 10.847656 11.804687 4.789063 2.871094 8.296875 5.742188 13.5625 7.496094 3.191407.957031 21.378907 10.6875 22.65625 9.890625 2.394531-1.59375-4.46875-15.472656-6.222656-16.90625"/><path fill="#e07e31" d="M767.484375 1309.785156c-1.277344-1.117187-2.394531-2.234375-3.507813-3.351562-1.117187-1.113282-2.234374-2.230469-3.351562-3.347656-2.234375-2.394532-4.308594-4.625-6.382812-7.179688-.957032-1.273438-2.074219-2.550781-2.710938-3.984375-.796875-1.4375-1.277344-3.03125-1.597656-4.628906 0-.476563-.160156-.796875-.160156-1.273438 0-.480469 0-.796875.160156-1.277343.160156-.796876.320312-1.59375.480468-2.390626.160157-.800781.476563-1.597656.636719-2.234374.160157-.320313.320313-.796876.480469-1.117188.160156-.320312.316406-.796875.636719-1.117188 1.117187-.796874 2.394531-1.273437 3.511719-1.753906 1.273437-.476562 2.550781-.796875 3.828124-1.117187.636719-.160157 1.277344-.160157 1.914063-.316407.636719-.160156 1.277344-.160156 1.914063-.160156H765.25c.640625 0 1.277344 0 1.914062.160156H765.25c-.636719 0-1.273438 0-1.914062.15625-1.277344.160157-2.550782.320313-3.828126.640626-1.277343.316406-2.554687.636718-3.667968 1.117187-1.117188.476563-2.394532 1.113281-3.351563 1.753906v-.160156c-.320312.636719-.640625 1.433594-.796875 2.074219-.320312.796875-.480468 1.433594-.640625 2.230468-.160156.800782-.316406 1.597657-.476562 2.234376 0 .320312-.160157.796874-.160157 1.117187 0 .320313 0 .796875.160157 1.117187.316406 1.59375.796875 3.03125 1.433593 4.304688.800782 1.4375 1.757813 2.554688 2.714844 3.828125 1.914063 2.554687 3.988282 4.945313 6.0625 7.339844 2.390625 2.710937 4.464844 5.101562 6.699219 7.335937Zm0 0"/><path fill="#ea853a" d="m768.761719 1324.777344-2.871094-3.347656c-.320313 3.828124.160156 6.378906-.320313 10.367187-.636718 5.582031-2.074218 10.847656-3.191406 16.429687-1.277344 6.222657-3.351562 12.28125-6.539062 17.863282-2.074219 3.351562-3.992188 7.019531-6.066406 10.210937-1.273438 2.074219-4.304688 4.945313-4.144532 7.335938 5.582032.480469 8.136719-4.148438 10.210938-8.292969 3.1875-6.222656 6.699218-13.238281 7.976562-20.097656.160156-.957032.160156-2.554688.796875-3.351563 1.4375-1.433593 1.277344.160157 2.234375-.160156 2.871094-.957031 3.667969-6.058594 3.828125-9.089844.160157-7.976562.957031-10.6875-1.914062-17.867187Zm0 0"/><path fill="#d4d7d1" d="M897.195312 1396.875c-.480468 1.277344-.957031 2.554688-1.277343 3.988281.160156-.160156.160156-.316406.320312-.476562Zm-29.515624 38.761719c-1.757813 4.148437.316406 2.234375 1.59375 4.464843 1.597656 3.191407 2.074218 2.714844-.796876 7.019532-2.871093 3.988281-6.382812 7.496094-9.890624 10.847656-6.863282 6.699219-15.957032 12.121094-22.019532 19.300781 4.148438 1.753907 9.253906-1.757812 8.777344 4.785157-.320312 3.667968-5.425781 9.730468-7.5 12.917968-2.710938 4.308594-5.742188 8.136719-9.253906 11.964844-3.988282 4.144531-11.328125 8.613281-13.5625 13.71875 4.628906 1.433594 7.980468-2.394531 7.179687 3.507812-.316406 2.871094-3.347656 6.21875-5.105469 8.453126-6.0625 7.976562-12.285156 16.589843-19.144531 23.925781-5.265625 5.582031-9.890625 11.644531-14.996093 17.386719-3.351563 3.828124-9.253907 7.335937-10.691407 12.121093 20.902344 3.03125 50.738281-23.765625 63.660157-35.570312 6.382812-5.742188 10.53125-12.597657 14.679687-20.097657 4.304687-7.496093 6.699219-16.746093 11.324219-23.765624.320312 1.117187.957031 1.753906.957031 3.03125 3.511719-1.914063 4.628906-11.007813 5.746094-14.992188 1.59375-5.105469 3.03125-10.371094 4.464843-15.632812 2.394532-8.296876 4.628907-16.75 7.660157-24.722657 3.667969-9.570312 8.136719-18.824219 11.007812-28.871093 2.234375-7.976563 2.074219-16.910157 4.148438-24.882813-5.582031 9.570313-12.445313 19.617187-20.101563 27.433594-2.234375 2.390625-6.859375 4.785156-8.136718 7.65625Zm0 0"/><path fill="#d36c28" d="M772.589844 1574.886719c11.328125-13.71875 24.410156-25.203125 30.152344-42.589844 6.863281-20.574219 2.234374-40.195313-12.601563-55.667969-15.15625-15.949218-44.511719-22.96875-65.574219-16.429687-18.664062 5.902343-30.3125 20.417969-39.886718 36.527343l-1.753907 7.179688c-.796875 19.777344 12.765625 37.644531 15.953125 56.945312 1.917969 12.121094.800782 25.359376-1.914062 37.164063-1.273438 5.265625-3.988282 11.484375-3.03125 17.066406 1.117187 6.699219 7.660156 11.964844 9.574218 18.824219 4.148438 14.671875 6.222657 37.324219 9.253907 52.316406 4.464843 22.652344 1.914062 39.71875 6.699219 62.207032 0 0 1.117187 25.683593 7.339843 31.265624 9.414063 8.613282 25.046875 13.875 36.535157 9.089844 5.265624-2.230468 9.734374-1.113281 13.082031-3.984375 5.746093-4.785156 4.628906-9.730469 2.074219-14.835937v-.160156c.320312-3.191407-1.753907-6.378907-4.625-8.933594-.957032-1.753906-2.074219-3.1875-3.511719-4.464844-3.507813-3.03125-8.613281-3.667969-12.761719-5.261719-.320312-.160156-.640625-.320312-.957031-.320312-2.714844-1.753907-4.46875-3.507813-5.425781-6.859375-.160157-.796875-.160157-1.753906-.320313-2.710938-.15625-2.234375-.476563-4.464844-.796875-6.699218 0-3.03125 0-6.0625-.320312-8.933594-1.59375-10.6875-4.304688-21.375-4.945313-32.21875-.957031-16.429688 0-33.179688 0-49.449219 0-11.960937-1.753906-25.203125 2.394531-36.6875 4.625-14.195313 16.59375-21.691406 25.367188-32.378906Zm-119.65625 148.5c-4.46875-.316407-10.210938 2.234375-14.042969 4.148437-5.742187 2.871094-11.484375 4.785156-17.390625 7.019532-14.835938-1.914063-38.609375-13.238282-48.019531-24.40625-8.457031-9.886719-.160157-11.324219 8.453125-16.109376 15.316406-8.292968 32.070312-14.992187 46.585937-24.5625 9.414063-6.222656 18.988281-15.3125 26.488281-23.609374 10.207032-11.164063 25.046876-38.601563 16.273438-53.753907l-3.671875-9.410156c-8.296875-10.367187-35.257813 1.753906-46.109375 3.507813-14.835938 2.394531-29.671875 6.382812-44.03125 10.210937-10.53125 2.871094-22.496094 6.21875-30.953125 13.558594-12.125 10.527343-8.773437 28.550781-.480469 40.195312 6.382813 8.929688 9.734375 14.195313 5.746094 25.042969-3.671875 10.046875-10.210938 17.863281-17.550781 25.359375-3.667969 3.828125-13.082031 11.484375-12.921875 17.386719.160156 5.421875 7.339844 11.964844 11.644531 14.515625 9.574219 5.582031 20.421875 9.570312 31.113281 12.601562 12.761719 3.507813 25.6875 6.699219 38.128906 11.003907 3.988282 1.4375 6.863282 2.234374 9.574219 2.714843 1.59375.796875 3.191407 1.113281 4.945313 1.433594 7.660156 1.4375 15.796875-1.914063 23.292968-4.304687 3.351563-.640626 6.859376-1.4375 9.894532-2.554688 7.976562-1.59375 16.910156-3.03125 18.824218-10.6875 2.554688-9.726562-5.425781-18.5-15.792968-19.300781Zm0 0"/><path fill="#c45d24" d="m659.3125 1581.90625 1.914062 2.550781c4.949219 3.828125 5.425782 10.527344 5.425782 16.429688 0 6.539062-3.03125 8.933593-8.296875 13.078125-1.914063 1.4375-8.453125 3.828125-9.253907 6.542968-.636718 2.070313 1.914063 4.144532 1.4375 6.855469-.636718 4.628907-7.179687 8.136719-10.371093 10.527344-7.976563 6.0625-16.273438 11.488281-24.410157 17.230469-6.542968 4.625-10.371093 9.25-13.402343 16.269531-2.074219 4.785156-5.582031 7.175781-9.890625 10.84375-7.816406 6.542969-19.625 7.5-21.21875 18.027344 10.371094-4.628907 18.664062-7.816407 24.25-11.644531 5.425781-3.667969 5.742187-2.710938 11.644531-5.585938 11.488281-5.261719 22.816406-7.015625 32.390625-15.949219 17.390625-16.429687 36.054688-37.003906 37.492188-62.527343.796874-12.121094-3.351563-23.925782-17.710938-22.648438Zm0 0"/><path fill="#ea853a" d="m448.875 1656.078125 1.914062-7.65625c-8.617187 11.800781-17.710937 34.929687-23.933593 48.011719-17.386719 36.207031-25.683594 95.382812-35.257813 122.023437 7.179688-11.964843 11.328125-19.621093 18.1875-31.902343 5.105469-9.09375 10.53125-18.34375 13.082032-28.710938 1.277343-5.105469.640624-19.140625 7.660156-19.78125 1.277344 2.234375 2.390625 4.148438 4.308594 5.742188 5.105468-7.175782 7.179687-19.457032 7.816406-28.230469.476562-6.222657-2.554688-21.375 1.59375-26.480469 15.796875 11.007812 2.875-28.871094 4.628906-33.015625Zm0 0"/><path fill="#bd6226" d="M772.113281 1758c-.480469-.636719-1.117187-1.433594-1.597656-2.070312-.957031-1.117188-2.394531-1.277344-3.828125-1.757813-2.394531-.796875-4.785156-1.273437-7.019531-1.914063-1.277344-.316406-2.714844-.796874-3.828125-1.433593-.480469-.320313-1.757813-.636719-2.074219-.957031-1.117187-.957032-1.757813-3.667969-2.234375-4.945313-.320312-1.117187-.480469-2.234375-.640625-3.191406-.476563-3.667969-.636719-7.496094-.957031-11.164063-.160156-2.390625-.316406-4.625-.316406-7.019531 0-1.433594-.160157-1.753906-.480469-3.1875l-.957031-3.988281c.320312 2.230468.796874 7.496094.636718 9.730468-.15625 2.550782-.15625 5.421876-.796875 7.972657-.636719 2.234375-2.074219 3.03125-1.59375 5.425781.316407 1.273438.957031 3.347656.476563 4.625-.316406.796875-.957032 1.277344-1.433594 1.914062-1.277344 1.59375-2.554688 3.191407-3.671875 5.105469-2.074219 3.347657-5.265625 5.582031-7.976563 8.453125-2.550781 2.550782-2.394531 4.144532-1.117187 7.496094.796875 2.074219.640625 2.550781 2.871094 1.753906 1.277343-.476562 2.394531-1.117187 3.671875-1.914062 2.234375-1.433594 4.464844-2.871094 6.699218-4.148438 1.277344-.796875 2.554688-1.59375 3.988282-2.390625.320312-.160156.800781-.636719 1.117187-.636719 1.277344-.160156 1.117188.796876 1.597657 1.59375.636718 1.277344 2.074218.796876 3.507812.160157 3.191406-1.4375 6.542969-2.234375 10.050781-1.597657 2.875.480469 5.425781.320313 8.136719 1.914063.320312-.957031-1.59375-3.027344-2.230469-3.828125Zm0 0"/><path fill="#bd6226" d="M778.492188 1771.242188c-.636719-1.4375-.796876-2.714844-1.273438-4.148438-.480469-1.4375-.480469-2.394531-1.117188-3.828125l-1.117187-.480469c-1.277344 0-10.050781-.796875-10.691406.480469-1.117188 2.390625 9.414062 4.308594 9.253906 7.976563-2.550781.957031-5.265625-1.117188-7.65625-1.117188-4.628906-.160156 2.230469 3.667969 3.03125 4.625 1.117187 1.277344 4.304687 4.464844 4.304687 6.378906 0 2.554688-3.828124 2.234375-5.421874.957032-2.074219-1.753907-2.234376-4.144532-4.789063-5.742188-3.347656-2.070312-6.539063-3.027344-10.527344-3.027344-1.4375 0-6.542969 1.433594-4.628906 3.507813.640625.636719 2.714844.636719 3.511719.957031 1.914062.796875 3.03125 2.074219 4.148437 3.828125 1.433594 1.914063 2.550781 4.304687.320313 6.378906-1.597656 1.4375-3.832032 1.277344-5.90625.796875-.796875-.15625-3.828125-1.113281-4.148438 0-.316406 1.4375 4.949219 1.757813 5.585938 1.914063 2.394531.160156 4.945312.160156 7.179687-.15625 2.871094-.480469 5.425781-2.554688 8.296875-3.351563 3.828125-.957031 8.933594-1.277344 11.484375-4.785156 2.554688-3.03125 1.757813-8.132812.160157-11.164062Zm0 0"/><path fill="#743803" d="M766.6875 1785.914062c-.160156-1.433593-.957031-3.027343-1.597656-4.304687-1.113282-2.550781-2.074219-4.308594-4.785156-5.105469-2.394532-.796875-7.339844-.957031-9.890626-.957031.636719 2.234375 1.914063 1.914063 3.828126 1.914063 1.753906 0 2.554687 0 3.828124 1.4375 1.4375 1.59375 2.234376 3.347656 2.394532 5.582031 0 .796875.160156 1.753906-.160156 2.390625-.320313 1.117187-1.277344 1.757812-1.59375 2.871094 1.59375.640624 4.464843-1.433594 6.0625-1.753907 1.433593-.476562 2.074218-.316406 1.914062-2.074219Zm-1.117188-15.628906c1.59375 0 3.351563.476563 4.945313.796875.957031.160157 1.753906.320313 2.554687.796875 1.59375.796875 2.230469 2.550782 2.710938 4.148438.957031 2.550781.957031 5.261718 1.117188 7.972656 3.988281-1.753906 3.351562-6.539062 1.59375-9.570312-2.871094-5.421876-7.816407-4.144532-12.921876-4.144532m12.921876-3.191406c-.636719-1.59375-1.753907-2.074219-3.191407-2.550781-3.347656-.957031-6.699219-1.277344-11.484375-1.277344 2.871094 0 5.742188.957031 8.933594 1.433594.636719.160156 1.59375.640625 2.234375 1.117187.636719.480469 1.117187.640625 1.59375 1.277344.480469.480469 1.277344 1.59375 1.753906 2.710938.320313-.636719.480469-1.914063.160157-2.710938Zm-9.890626-12.601562c-1.277343-.796876-1.277343-.796876-2.550781-1.59375-2.234375-1.4375-4.789062-2.554688-7.5-2.554688-3.03125 0-3.191406-.636719-4.945312-2.710938-.480469-.636718-1.277344-1.117187-1.757813-1.753906-.476562-.796875-.476562-2.074218-1.113281-3.988281v3.511719c0 .316406.15625.796875 0 1.273437-.160156.796875-.960937.957031-1.277344 1.597657-.640625 1.273437.636719 1.113281.796875 2.230468.160156 1.4375-2.710937 2.554688-3.667968 3.351563-.640626.476562-.957032.957031-1.597657 1.433593-.796875.796876-2.390625 1.277344-3.03125 2.234376-.636719.796874-.320312 1.277343.796875 1.277343 2.074219 0 5.105469-1.4375 7.019532-2.234375 2.714843-1.277344 5.585937-2.550781 8.617187-2.710937 2.554687 0 5.105469.476562 7.339844 1.433593 1.59375.640626 3.507812 1.597657 5.105469 1.914063.320312-.957031-1.597657-2.230469-2.234376-2.710937Zm0 0"/><path fill="#bd6226" d="M723.449219 1762.308594c0-4.625.640625-8.933594 2.234375-13.398438 2.394531-6.539062 5.265625-11.964844 3.828125-18.980468-.796875-3.828126-2.074219-7.5-2.074219-11.328126.160156-2.550781.480469-5.261718.160156-7.972656-.796875-7.976562-8.613281-14.355468-6.539062-22.332031 2.074218-8.292969 3.191406-15.3125-.480469-23.289063-2.234375-4.945312-5.105469-9.730468-7.65625-14.515624-2.394531-4.464844-4.308594-7.496094-7.019531-11.800782l-1.597656-2.871094c0 9.089844 2.234374 17.226563 4.628906 25.839844 2.871094 10.367188.636718 20.894532 2.230468 31.582032 1.117188 8.292968 2.234376 16.589843 4.46875 24.722656 1.914063 6.699218 1.117188 13.558594 2.074219 20.257812.636719 4.464844 1.753907 8.933594 2.074219 13.398438.160156 3.828125.320312 7.65625.957031 11.644531.320313 2.394531 2.074219 17.707031 6.859375 15.632813 2.871094-1.117188-.476562-6.0625-1.59375-7.496094-2.234375-2.871094-2.554687-5.425782-2.554687-9.09375Zm0 0"/><path fill="#884621" d="M693.773438 1614.605469c2.074218 1.273437 3.511718 5.902343 5.265624 7.816406 1.914063 2.070313 3.351563 3.828125 4.628907 6.378906 2.710937 5.261719 7.019531 15.632813 8.933593 21.214844-.320312-2.394531-6.859374-11.007813-8.296874-13.082031-1.753907-2.550782-1.753907-4.625-3.507813-7.175782-3.03125-4.464843-7.5-9.570312-7.023437-15.152343"/><path fill="#aa5922" d="M667.449219 1731.203125c-1.117188-3.1875-4.304688-5.101563-7.65625-6.058594.796875 2.074219 4.464843 4.304688 3.191406 6.539063-.957031 1.753906-3.191406-.480469-4.628906-.796875 0 2.074219 2.714843 4.625-.957031 4.945312-1.914063.15625-4.625-.957031-6.859376-.957031-2.710937 0-5.585937-.320312-8.136718 0-2.554688.316406-4.785156 1.59375-7.339844 2.390625-5.425781 2.074219-5.742188 4.945313-1.753906 3.191406 5.582031-2.394531 13.71875-3.511719 19.78125-2.394531 1.757812.320312 5.585937 2.074219 6.0625 3.988281.640625 2.074219-.476563.957031-1.113282 1.914063-.320312.480468-1.117187.160156-1.277343 1.277344-.160157.796874.957031.796874.957031 1.273437.160156 1.4375.957031 1.117187-.480469 2.554687-.796875.796876-2.550781 1.273438-3.507812 1.59375-2.394531.957032-6.382813 1.59375-7.976563 3.828126 2.550782.636718 7.976563-.476563 10.527344-1.277344 2.871094-.957032 5.425781-1.113282 8.136719-2.550782 5.746093-3.507812 7.019531-7.976562 3.03125-19.460937Zm0 0"/><path fill="#743803" d="M665.375 1743.328125c-1.433594-1.117187-.636719-3.03125-5.105469-4.625l-1.753906-.320313c-.160156 0-.320313.160157-.160156.320313 3.03125 2.070313 5.105469 7.335937 3.828125 9.410156-.957032 1.59375-3.507813 2.230469-5.105469 2.871094-1.433594.636719-2.871094 1.59375-4.304687 2.390625 2.230468.640625 5.742187-1.273438 7.976562-2.074219 2.074219-.636719 5.105469-.957031 5.902344-3.1875.957031-1.914062.480468-3.511719-1.277344-4.785156Zm.480469-8.453125c1.59375.316406 2.394531 2.871094 3.03125 4.144531.476562.796875.796875 3.03125.636719 3.988281.320312-.796874 0-2.710937 0-3.667968 0-.796875 0-1.59375-.316407-2.394532-.800781-1.273437-1.917969-1.914062-3.351562-2.070312"/><path fill="#bd6226" d="M581.773438 1743.328125c-5.902344-3.828125-11.804688-7.816406-18.1875-10.847656-5.105469-2.550781-10.6875-5.902344-16.273438-6.539063-3.667969-.480468-8.773438.636719-13.082031.957032-.796875.160156-.957031 1.277343-.160157 1.433593 4.789063 1.4375 10.851563 2.554688 14.199219 4.148438 5.425781 2.550781 10.851563 4.945312 16.273438 7.179687 5.105469 2.230469 10.371093 4.464844 15.796875 6.539063 1.753906.636719 3.03125-1.914063 1.433594-2.871094Zm0 0"/><path fill="#743803" d="M651.816406 1737.105469c-2.074218 0-4.46875-.316407-6.382812.640625 3.667968-.640625 7.65625 0 11.007812.15625.160156 0 .160156-.15625 0-.15625-1.59375-.480469-3.351562-.640625-4.625-.640625Zm5.261719-6.539063c-2.710937-.160156-5.105469.160156-7.816406.320313v.160156c2.710937.15625 7.019531.15625 9.09375.636719 2.394531.636718 3.671875 1.277344 6.0625 2.074218 0 0 .160156 0 0 0-.316407-1.914062-5.902344-3.191406-7.339844-3.191406Zm-166.402344-62.847656c1.753907 4.628906.796875 11.007812.796875 15.953125 0 2.871094.160156 5.261719.957032 7.976563.636718 1.753906 1.4375 5.101562 3.351562 5.898437.160156-.796875 0-1.753906 0-2.550781 2.871094 3.507812 4.464844 7.976562 8.933594 9.890625-.160156-.640625-.480469-1.277344-.796875-1.914063 2.871093 3.1875 6.222656 5.582032 9.730469 7.972656 2.234374 1.757813 6.542968 3.828126 7.660156 6.542969.316406-.957031-.957032-3.03125-1.4375-3.828125-1.117188-2.554687-2.234375-4.945312-3.351563-7.5-1.914062-3.667968-3.507812-7.496094-5.902343-10.84375-4.464844-6.699218-10.050782-12.601562-14.359376-19.300781-1.273437-1.914063-3.03125-7.816406-5.582031-8.296875"/><path fill="#bd6226" d="M558.480469 1676.332031c-.316407-.15625-.476563 0-.636719.320313-.480469 1.753906-1.914062 3.507812-2.871094 5.105468-1.757812 3.191407-3.832031 6.0625-5.90625 8.933594-3.03125 4.304688-6.0625 8.292969-9.890625 11.640625-3.03125 2.714844-6.222656 5.265625-9.414062 7.65625-1.59375 1.117188-4.304688 2.871094-.957031 3.828125 2.394531.640625 4.949218-1.273437 7.019531-2.230468 1.597656-.796876 3.671875-.796876 5.105469-1.753907 2.234374-1.4375 3.671874-4.46875 4.949218-6.542969 2.074219-3.347656 4.148438-6.539062 5.902344-10.046874 2.710938-5.421876 6.222656-10.367188 7.179688-16.429688-.160157-.160156-.320313-.480469-.480469-.480469Zm0 0"/><path fill="#c45d24" d="M565.023438 1653.523438c-4.46875 3.191406-9.574219 7.976562-15.636719 7.816406-12.285157-.160156-4.148438-9.410156-11.167969-12.601563-2.394531-1.117187-11.167969 5.425781-16.113281 3.828125-6.542969-2.074218-8.136719-7.65625-9.734375-13.71875l2.875-5.898437c.796875-12.285157-22.816406 9.089843-24.570313 17.863281-.957031 4.945312 0 11.324219 2.871094 15.472656 5.425781 7.335938 10.371094 2.550782 16.433594 6.0625 6.699219 3.828125 5.582031 8.292969 14.519531 9.570313 5.261719.796875 11.804688.316406 16.75-.957031 10.851562-2.714844 25.6875-15.472657 23.773438-27.4375Zm0 0"/><path fill="#743803" d="M526.730469 1778.101562c0-7.976562-3.347657-13.242187-9.253907-17.546874 4.789063 4.304687 2.714844 17.703124 2.714844 23.128906 0 10.207031-3.191406 19.457031-6.222656 29.03125-2.554688 7.65625-4.148438 16.90625-4.628906 25.039062-.15625 3.191406-.316406 6.542969.640625 9.574219.796875 2.390625 2.550781 4.464844 3.191406 6.699219 3.828125-4.308594 7.816406-32.0625 8.933594-38.921875 1.117187-7.019531 1.914062-14.195313 3.507812-21.214844 1.4375-5.105469 1.117188-10.367187 1.117188-15.789063Zm-9.09375-17.546874c-.316407-.320313-.636719-.480469-.957031-.640626.320312.320313.640624.480469.957031.640626Zm0 0"/><path d="M1956.465993 1425.720531h-99.140625l151.0625-437.5625h119.21875l150.84375 437.5625h-99.140625l-32.484375-99.78125h-157.890625Zm55.96875-172h111.109375l-53.84375-165.578125h-3.421875Zm601.525432-265.5625h91.859375v289.28125c0 33.054688-7.761719 61.078125-23.28125 84.078125-15.523438 23-36.921875 40.484375-64.203125 52.453125s-58.585937 17.953125-93.90625 17.953125c-35.324219 0-66.664063-5.984375-94.015625-17.953125-27.34375-11.96875-48.746094-29.453125-64.203125-52.453125-15.449219-23-23.171875-51.023437-23.171875-84.078125v-289.28125h92.515625v286.078125c0 23.367187 8.4375 41.742187 25.3125 55.125 16.882813 13.386719 38.070313 20.078125 63.5625 20.078125 25.925781 0 47.328125-6.691406 64.203125-20.078125 16.882812-13.382813 25.328125-31.757813 25.328125-55.125Zm163.290402 76.265625v-76.265625h359.375v76.265625h-133.96875v361.296875h-91.4375v-361.296875Zm430.807066 361.296875v-437.5625h92.515625v180.53125h187.796875v-180.53125h92.296875v437.5625h-92.296875v-180.75h-187.796875v180.75Zm460.925942 0v-437.5625h289.71875v76.265625H3761.49921v104.265625h177.96875v76.28125h-177.96875v180.75Zm766.019554-218.78125c0 47.71875-9.011719 88.3125-27.03125 121.78125-18.011719 33.46875-42.476562 59-73.390625 76.59375-30.90625 17.59375-65.730469 26.390625-104.46875 26.390625-38.886719 0-73.78125-8.828125-104.6875-26.484375-30.90625-17.664062-55.335937-43.269531-73.28125-76.8125-17.949219-33.550781-26.921875-74.039062-26.921875-121.46875 0-47.71875 8.972656-88.3125 26.921875-121.78125 17.945313-33.476562 42.375-59.007812 73.28125-76.59375 30.90625-17.59375 65.800781-26.390625 104.6875-26.390625 38.738281 0 73.5625 8.796875 104.46875 26.390625 30.914063 17.585938 55.378906 43.117188 73.390625 76.59375 18.019531 33.46875 27.03125 74.0625 27.03125 121.78125Zm-93.78125 0c0-46.4375-10.117188-81.867188-30.34375-106.296875-20.230469-24.425781-47.152344-36.640625-80.765625-36.640625-33.617187 0-60.539063 12.214844-80.765625 36.640625-20.21875 24.429687-30.328125 59.859375-30.328125 106.296875 0 46.292969 10.109375 81.6875 30.328125 106.1875 20.226562 24.5 47.148438 36.75 80.765625 36.75 33.613281 0 60.535156-12.25 80.765625-36.75 20.226562-24.5 30.34375-59.894531 30.34375-106.1875Zm260.942794-218.78125 88.234375 149.125h3.421875l88.65625-149.125h104.484375l-133.53125 218.78125 136.53125 218.78125h-106.40625l-89.734375-149.34375h-3.421875l-89.734375 149.34375h-105.96875l136.953125-218.78125-134.390625-218.78125Zm0 0" fill="#ffbd59"/><path d="M1852.372243 1710.194056v-107.65625h43.109375c11.875 0 20.796875 2.585938 26.765625 7.75 5.976563 5.167969 8.96875 11.78125 8.96875 19.84375 0 6.34375-1.839844 11.46875-5.515625 15.375-3.679688 3.90625-8.320312 6.492188-13.921875 7.75v1.0625c4.09375.179688 7.9375 1.335938 11.53125 3.46875 3.59375 2.136719 6.507813 5.117188 8.75 8.9375 2.25 3.8125 3.375 8.386719 3.375 13.71875 0 5.710938-1.414063 10.808594-4.234375 15.296875-2.824219 4.480469-6.992188 8.011719-12.5 10.59375-5.5 2.574219-12.277344 3.859375-20.328125 3.859375Zm22.765625-18.609375h18.546875c6.382813 0 11.019531-1.222656 13.90625-3.671875 2.894531-2.457031 4.34375-5.703125 4.34375-9.734375 0-4.445313-1.589844-8.085937-4.765625-10.921875-3.167969-2.84375-7.484375-4.265625-12.953125-4.265625h-19.078125Zm0-44h16.875c4.65625 0 8.523438-1.21875 11.609375-3.65625 3.082031-2.4375 4.625-5.773437 4.625-10.015625 0-3.882812-1.375-7.019531-4.125-9.40625-2.75-2.382812-6.652344-3.578125-11.703125-3.578125h-17.28125Zm86.507682-45.046875h25.5l24.546875 46.359375h1.046875l24.546875-46.359375h25.5l-39.265625 69.59375v38.0625h-22.609375v-38.0625Zm183.395499 107.65625v-107.65625h42.46875c8.164063 0 15.125 1.554688 20.875 4.65625 5.75 3.09375 10.140625 7.386719 13.171875 12.875 3.03125 5.480469 4.546875 11.796875 4.546875 18.953125 0 7.148437-1.542969 13.445313-4.625 18.890625-3.085937 5.449219-7.546875 9.710938-13.390625 12.78125-5.835938 3.0625-12.886719 4.59375-21.15625 4.59375h-19.125v34.90625Zm22.765625-53.140625h15.453125c6.519531 0 11.378906-1.671875 14.578125-5.015625 3.207031-3.351562 4.8125-7.691406 4.8125-13.015625 0-5.363281-1.605469-9.679687-4.8125-12.953125-3.199219-3.28125-8.09375-4.921875-14.6875-4.921875h-15.34375Zm157.531538-54.515625h22.609375v71.171875c0 8.136719-1.914062 15.03125-5.734375 20.6875-3.824219 5.65625-9.089844 9.960937-15.796875 12.90625-6.710938 2.9453125-14.414062 4.421875-23.109375 4.421875-8.6875 0-16.398437-1.4765625-23.125-4.421875-6.730469-2.945313-11.996094-7.25-15.796875-12.90625-3.804688-5.65625-5.703125-12.550781-5.703125-20.6875v-71.171875h22.765625v70.390625c0 5.742187 2.070312 10.261719 6.21875 13.5625 4.15625 3.292969 9.367188 4.9375 15.640625 4.9375 6.375 0 11.640625-1.644531 15.796875-4.9375 4.15625-3.300781 6.234375-7.820313 6.234375-13.5625Zm59.074458 107.65625v-107.65625h42.46875c12.226563 0 21.71875 3.1875 28.46875 9.5625s10.125 14.914062 10.125 25.609375c0 7.355469-1.640625 13.648437-4.921875 18.875-3.273438 5.21875-7.976562 9.140625-14.109375 11.765625l22.859375 41.84375h-25.125l-20.390625-38.171875h-16.609375v38.171875Zm22.765625-56.453125h15.453125c12.925781 0 19.390625-5.34375 19.390625-16.03125 0-11.039063-6.5-16.5625-19.5-16.5625h-15.34375Zm191.074333 2.625c0 11.742187-2.21875 21.730469-6.65625 29.96875-4.4375 8.230469-10.460937 14.511719-18.0625 18.84375-7.605469 4.324219-16.171875 6.484375-25.703125 6.484375-9.5625 0-18.148438-2.171875-25.75-6.515625-7.605469-4.34375-13.617188-10.640625-18.03125-18.890625-4.417969-8.257812-6.625-18.222656-6.625-29.890625 0-11.738281 2.207031-21.722656 6.625-29.953125 4.414062-8.238281 10.425781-14.519531 18.03125-18.84375 7.601562-4.332031 16.1875-6.5 25.75-6.5 9.53125 0 18.097656 2.167969 25.703125 6.5 7.601563 4.324219 13.625 10.605469 18.0625 18.84375 4.4375 8.230469 6.65625 18.214844 6.65625 29.953125Zm-23.078125 0c0-11.425781-2.492188-20.144531-7.46875-26.15625-4.980469-6.007813-11.605469-9.015625-19.875-9.015625-8.273438 0-14.898438 3.007812-19.875 9.015625-4.96875 6.011719-7.453125 14.730469-7.453125 26.15625 0 11.386719 2.484375 20.09375 7.453125 26.125 4.976562 6.03125 11.601562 9.046875 19.875 9.046875 8.269531 0 14.894531-3.015625 19.875-9.046875 4.976562-6.03125 7.46875-14.738281 7.46875-26.125Zm53.541446-35.0625v-18.765625h88.421875v18.765625h-32.953125v88.890625h-22.5v-88.890625Zm219.736531 35.0625c0 11.742187-2.21875 21.730469-6.65625 29.96875-4.4375 8.230469-10.460937 14.511719-18.0625 18.84375-7.605469 4.324219-16.171875 6.484375-25.703125 6.484375-9.5625 0-18.148438-2.171875-25.75-6.515625-7.605469-4.34375-13.617188-10.640625-18.03125-18.890625-4.417969-8.257812-6.625-18.222656-6.625-29.890625 0-11.738281 2.207031-21.722656 6.625-29.953125 4.414062-8.238281 10.425781-14.519531 18.03125-18.84375 7.601562-4.332031 16.1875-6.5 25.75-6.5 9.53125 0 18.097656 2.167969 25.703125 6.5 7.601563 4.324219 13.625 10.605469 18.0625 18.84375 4.4375 8.230469 6.65625 18.214844 6.65625 29.953125Zm-23.078125 0c0-11.425781-2.492188-20.144531-7.46875-26.15625-4.980469-6.007813-11.605469-9.015625-19.875-9.015625-8.273438 0-14.898438 3.007812-19.875 9.015625-4.96875 6.011719-7.453125 14.730469-7.453125 26.15625 0 11.386719 2.484375 20.09375 7.453125 26.125 4.976562 6.03125 11.601562 9.046875 19.875 9.046875 8.269531 0 14.894531-3.015625 19.875-9.046875 4.976562-6.03125 7.46875-14.738281 7.46875-26.125Zm0 0" fill="#ffde59"/></svg>