<svg xmlns="http://www.w3.org/2000/svg" xmlns:xlink="http://www.w3.org/1999/xlink" version="1.0" viewBox="0 0 5184 2592"><defs><path id="m" d="M43-76a41 41 0 0 1 29 12l-8 9a30 30 0 0 0-21-9c-7 0-13 2-19 7-5 5-7 12-7 19 0 8 2 14 7 19 6 5 12 8 19 8 8 0 15-3 21-9l8 8A44 44 0 0 1 43 1 38 38 0 0 1 4-38c0-10 3-19 11-27 8-7 17-11 28-11Zm0 0"/><path id="n" d="M58 0 44-23H23V0H10v-75h30c10 0 18 2 23 6 5 5 8 11 8 19 0 6-2 12-4 16-3 4-7 7-12 9L72 0ZM23-34h17c13 0 19-5 19-15s-6-15-19-15H23Zm0 0"/><path id="o" d="M15-65c8-7 17-11 29-11 11 0 20 4 28 11 8 8 11 17 11 27 0 11-3 20-11 28C64-3 55 1 44 1 32 1 23-3 15-10 7-18 4-27 4-38c0-10 3-19 11-27Zm29 1c-8 0-14 2-19 7-6 6-8 12-8 19 0 8 2 14 8 19 5 6 11 8 19 8 7 0 13-2 19-8 5-5 7-11 7-19 0-7-2-13-7-19-6-5-12-7-19-7Zm0 0"/><path id="p" d="M35-76c9 0 18 3 26 8l-5 11c-8-5-15-7-22-7l-9 2c-2 2-4 3-4 6 0 2 1 5 3 6l8 4a135 135 0 0 1 20 7l7 7c2 3 3 6 3 11 0 6-3 12-8 16a44 44 0 0 1-37 3L3-13l5-10 13 8c4 2 9 2 13 2s8 0 10-2c3-2 4-4 4-7l-3-6-8-4a173 173 0 0 1-19-7c-3-1-6-3-8-6s-3-7-3-11c0-6 3-11 8-15s11-6 20-6Zm0 0"/><path id="q" d="M33-29H7v-8h26Zm0 0"/><path id="r" d="M10-75h30c9 0 17 2 22 6 5 5 8 11 8 19 0 9-3 16-8 20-5 5-13 7-22 7H23V0H10Zm13 11v30h16c12 0 19-5 19-15s-7-15-19-15Zm0 0"/><path id="s" d="M23-12h32V0H10v-75h13Zm0 0"/><path id="t" d="M59-17H21L13 0H0l33-75h13L79 0H66Zm-5-11L39-62 25-28Zm0 0"/><path id="u" d="M61-64H37V0H25v-64H1v-11h60Zm0 0"/><path id="v" d="M60-64H23v22h34v11H23V0H10v-75h50Zm0 0"/><path id="w" d="M90 0H78v-56L54-8h-8L22-56V0H10v-75h15l25 50 25-50h15Zm0 0"/><path id="y" d="M64-64H23v20h36v12H23v21h42V0H10v-75h54Zm0 0"/><path id="z" d="M23 0H10v-75h13Zm0 0"/><path id="A" d="M75 0H63L23-54V0H10v-75h12l41 54v-54h12Zm0 0"/><path id="B" d="M10-75h33c7 0 14 1 18 5 5 3 7 8 7 14 0 4-1 7-4 10-2 3-5 5-9 6 5 1 9 3 11 7 3 3 5 7 5 12 0 7-3 12-8 16-4 3-11 5-20 5H10Zm13 11v20h19c4 0 7-1 9-3 3-2 4-4 4-7s-1-6-4-7c-2-2-5-3-9-3Zm0 31v22h19c5 0 9-1 12-3 2-2 4-5 4-8 0-4-2-6-4-8-3-2-7-3-12-3Zm0 0"/><path id="C" d="M41-25V0H28v-25L0-75h13l21 36 22-36h12Zm0 0"/><path id="b" d="M252-366c0-52-29-80-81-80h-62c-53 0-81 28-81 80v286c0 52 28 80 81 80h62c52 0 81-28 81-80v-61c0-5-4-9-9-9h-56c-6 0-9 4-9 9v45c0 15-8 22-22 22h-29c-15 0-23-7-23-22v-254c0-15 8-23 23-23h29c14 0 22 8 22 23v44c0 6 3 9 9 9h56c5 0 9-3 9-9Zm0 0"/><path id="c" d="M28-9c0 6 3 9 9 9h58c6 0 9-3 9-9v-141h67c52 0 80-28 80-80v-136c0-52-28-80-80-80H37c-6 0-9 3-9 9Zm76-214v-150h49c15 0 22 8 22 23v105c0 13-7 22-22 22Zm0 0"/><path id="d" d="M28-175c0 7 4 11 11 11h88c7 0 11-4 11-11v-51c0-8-4-12-11-12H39c-7 0-11 4-11 12Zm0 0"/><path id="e" d="M26-446c-6 0-9 3-9 9v55c0 6 3 9 9 9h64V-9c0 6 4 9 9 9h58c6 0 9-3 9-9v-364h65c6 0 9-3 9-9v-55c0-6-3-9-9-9Zm0 0"/><path id="f" d="M250-437c0-6-2-9-8-9H36c-5 0-8 3-8 9V-9c0 6 3 9 8 9h206c6 0 8-3 8-9v-56c0-6-2-9-8-9H102v-112h107c5 0 9-4 9-10v-55c0-6-4-10-9-10H102v-111h140c6 0 8-4 8-10Zm0 0"/><path id="g" d="M257-366c0-52-28-80-80-80H37c-6 0-9 3-9 9V-9c0 6 3 9 9 9h58c5 0 9-3 9-9v-141h38L180-8c1 5 4 8 9 8h58c6 0 10-3 8-10l-39-146c27-12 41-36 41-74ZM104-223v-150h55c14 0 22 8 22 23v105c0 14-8 22-22 22Zm0 0"/><path id="h" d="M261-446c-7 0-11 3-12 10l-62 278-62-278c-2-7-6-10-12-10H39c-7 0-11 4-11 11v424c0 7 4 11 11 11h51c8 0 12-4 12-11v-251h3l56 252c1 7 5 10 12 10h27c7 0 11-3 13-10l55-252h4v251c0 7 4 11 11 11h52c7 0 11-4 11-11v-424c0-7-4-11-11-11Zm0 0"/><path id="i" d="M37-446c-6 0-9 3-9 9V-9c0 6 3 9 9 9h58c5 0 9-3 9-9v-428c0-6-4-9-9-9Zm0 0"/><path id="j" d="M199-446c-6 0-9 3-9 9v235h-3l-85-237c-2-5-5-7-10-7H37c-6 0-9 3-9 9V-9c0 6 3 9 9 9h58c6 0 9-3 9-9v-236h3L192-7c2 5 5 7 10 7h55c6 0 9-3 9-9v-428c0-6-3-9-9-9Zm0 0"/><path id="k" d="M297 0c6 0 9-3 8-9l-93-429c-1-6-4-8-9-8h-78c-5 0-8 2-10 8L23-9c-2 6 1 9 7 9h60c5 0 8-3 9-8l15-81h99l16 81c1 5 4 8 9 8Zm-98-154h-71l35-195Zm0 0"/><path id="l" d="M104-74h133c6 0 8 4 8 9v56c0 6-2 9-8 9H37c-6 0-9-3-9-9v-428c0-6 3-9 9-9h58c6 0 9 3 9 9Zm0 0"/><clipPath id="a"><path d="M260 754h1167v1083H260Zm0 0"/></clipPath></defs><g clip-path="url(#a)"><path fill="#004AAD" d="M1343 754H344c-46 0-83 37-83 83v916c0 46 37 84 83 84h999c46 0 84-38 84-84V837c0-46-38-83-84-83Zm-249 83h166v84h-166Zm249 916H344v-749h999Zm0 0"/></g><path fill="#004AAD" d="m555 1631 252-252-252-253-89 89 164 164-164 164Zm289-211h416v167H844Zm0 0"/><use xmlns:xlink="http://www.w3.org/1999/xlink" xlink:actuate="onLoad" xlink:href="#b" xlink:show="embed" xlink:type="simple" x="1562" y="1454" fill="#5271FF"/><use xmlns:xlink="http://www.w3.org/1999/xlink" xlink:actuate="onLoad" xlink:href="#c" xlink:show="embed" xlink:type="simple" x="1853" y="1454" fill="#5271FF"/><use xmlns:xlink="http://www.w3.org/1999/xlink" xlink:actuate="onLoad" xlink:href="#c" xlink:show="embed" xlink:type="simple" x="2143" y="1454" fill="#5271FF"/><use xmlns:xlink="http://www.w3.org/1999/xlink" xlink:actuate="onLoad" xlink:href="#d" xlink:show="embed" xlink:type="simple" x="2433" y="1454" fill="#5271FF"/><use xmlns:xlink="http://www.w3.org/1999/xlink" xlink:actuate="onLoad" xlink:href="#e" xlink:show="embed" xlink:type="simple" x="2610" y="1454" fill="#5271FF"/><use xmlns:xlink="http://www.w3.org/1999/xlink" xlink:actuate="onLoad" xlink:href="#f" xlink:show="embed" xlink:type="simple" x="2878" y="1454" fill="#5271FF"/><use xmlns:xlink="http://www.w3.org/1999/xlink" xlink:actuate="onLoad" xlink:href="#g" xlink:show="embed" xlink:type="simple" x="3168" y="1454" fill="#5271FF"/><use xmlns:xlink="http://www.w3.org/1999/xlink" xlink:actuate="onLoad" xlink:href="#h" xlink:show="embed" xlink:type="simple" x="3464" y="1454" fill="#5271FF"/><use xmlns:xlink="http://www.w3.org/1999/xlink" xlink:actuate="onLoad" xlink:href="#i" xlink:show="embed" xlink:type="simple" x="3849" y="1454" fill="#5271FF"/><use xmlns:xlink="http://www.w3.org/1999/xlink" xlink:actuate="onLoad" xlink:href="#j" xlink:show="embed" xlink:type="simple" x="3992" y="1454" fill="#5271FF"/><use xmlns:xlink="http://www.w3.org/1999/xlink" xlink:actuate="onLoad" xlink:href="#k" xlink:show="embed" xlink:type="simple" x="4297" y="1454" fill="#5271FF"/><use xmlns:xlink="http://www.w3.org/1999/xlink" xlink:actuate="onLoad" xlink:href="#l" xlink:show="embed" xlink:type="simple" x="4635" y="1454" fill="#5271FF"/><use xmlns:xlink="http://www.w3.org/1999/xlink" xlink:actuate="onLoad" xlink:href="#m" xlink:show="embed" xlink:type="simple" x="1562" y="1674" fill="#38B6FF"/><use xmlns:xlink="http://www.w3.org/1999/xlink" xlink:actuate="onLoad" xlink:href="#n" xlink:show="embed" xlink:type="simple" x="1650" y="1674" fill="#38B6FF"/><use xmlns:xlink="http://www.w3.org/1999/xlink" xlink:actuate="onLoad" xlink:href="#o" xlink:show="embed" xlink:type="simple" x="1741" y="1674" fill="#38B6FF"/><use xmlns:xlink="http://www.w3.org/1999/xlink" xlink:actuate="onLoad" xlink:href="#p" xlink:show="embed" xlink:type="simple" x="1841" y="1674" fill="#38B6FF"/><use xmlns:xlink="http://www.w3.org/1999/xlink" xlink:actuate="onLoad" xlink:href="#p" xlink:show="embed" xlink:type="simple" x="1921" y="1674" fill="#38B6FF"/><use xmlns:xlink="http://www.w3.org/1999/xlink" xlink:actuate="onLoad" xlink:href="#q" xlink:show="embed" xlink:type="simple" x="2001" y="1674" fill="#38B6FF"/><use xmlns:xlink="http://www.w3.org/1999/xlink" xlink:actuate="onLoad" xlink:href="#r" xlink:show="embed" xlink:type="simple" x="2053" y="1674" fill="#38B6FF"/><use xmlns:xlink="http://www.w3.org/1999/xlink" xlink:actuate="onLoad" xlink:href="#s" xlink:show="embed" xlink:type="simple" x="2138" y="1674" fill="#38B6FF"/><use xmlns:xlink="http://www.w3.org/1999/xlink" xlink:actuate="onLoad" xlink:href="#t" xlink:show="embed" xlink:type="simple" x="2209" y="1674" fill="#38B6FF"/><use xmlns:xlink="http://www.w3.org/1999/xlink" xlink:actuate="onLoad" xlink:href="#u" xlink:show="embed" xlink:type="simple" x="2301" y="1674" fill="#38B6FF"/><use xmlns:xlink="http://www.w3.org/1999/xlink" xlink:actuate="onLoad" xlink:href="#v" xlink:show="embed" xlink:type="simple" x="2376" y="1674" fill="#38B6FF"/><use xmlns:xlink="http://www.w3.org/1999/xlink" xlink:actuate="onLoad" xlink:href="#o" xlink:show="embed" xlink:type="simple" x="2451" y="1674" fill="#38B6FF"/><use xmlns:xlink="http://www.w3.org/1999/xlink" xlink:actuate="onLoad" xlink:href="#n" xlink:show="embed" xlink:type="simple" x="2551" y="1674" fill="#38B6FF"/><use xmlns:xlink="http://www.w3.org/1999/xlink" xlink:actuate="onLoad" xlink:href="#w" xlink:show="embed" xlink:type="simple" x="2642" y="1674" fill="#38B6FF"/><use xmlns:xlink="http://www.w3.org/1999/xlink" xlink:actuate="onLoad" xlink:href="#x" xlink:show="embed" xlink:type="simple" x="2754" y="1674" fill="#38B6FF"/><use xmlns:xlink="http://www.w3.org/1999/xlink" xlink:actuate="onLoad" xlink:href="#u" xlink:show="embed" xlink:type="simple" x="2795" y="1674" fill="#38B6FF"/><use xmlns:xlink="http://www.w3.org/1999/xlink" xlink:actuate="onLoad" xlink:href="#y" xlink:show="embed" xlink:type="simple" x="2870" y="1674" fill="#38B6FF"/><use xmlns:xlink="http://www.w3.org/1999/xlink" xlink:actuate="onLoad" xlink:href="#n" xlink:show="embed" xlink:type="simple" x="2953" y="1674" fill="#38B6FF"/><use xmlns:xlink="http://www.w3.org/1999/xlink" xlink:actuate="onLoad" xlink:href="#w" xlink:show="embed" xlink:type="simple" x="3044" y="1674" fill="#38B6FF"/><use xmlns:xlink="http://www.w3.org/1999/xlink" xlink:actuate="onLoad" xlink:href="#z" xlink:show="embed" xlink:type="simple" x="3157" y="1674" fill="#38B6FF"/><use xmlns:xlink="http://www.w3.org/1999/xlink" xlink:actuate="onLoad" xlink:href="#A" xlink:show="embed" xlink:type="simple" x="3202" y="1674" fill="#38B6FF"/><use xmlns:xlink="http://www.w3.org/1999/xlink" xlink:actuate="onLoad" xlink:href="#t" xlink:show="embed" xlink:type="simple" x="3300" y="1674" fill="#38B6FF"/><use xmlns:xlink="http://www.w3.org/1999/xlink" xlink:actuate="onLoad" xlink:href="#s" xlink:show="embed" xlink:type="simple" x="3392" y="1674" fill="#38B6FF"/><use xmlns:xlink="http://www.w3.org/1999/xlink" xlink:actuate="onLoad" xlink:href="#x" xlink:show="embed" xlink:type="simple" x="3463" y="1674" fill="#38B6FF"/><use xmlns:xlink="http://www.w3.org/1999/xlink" xlink:actuate="onLoad" xlink:href="#s" xlink:show="embed" xlink:type="simple" x="3503" y="1674" fill="#38B6FF"/><use xmlns:xlink="http://www.w3.org/1999/xlink" xlink:actuate="onLoad" xlink:href="#z" xlink:show="embed" xlink:type="simple" x="3574" y="1674" fill="#38B6FF"/><use xmlns:xlink="http://www.w3.org/1999/xlink" xlink:actuate="onLoad" xlink:href="#B" xlink:show="embed" xlink:type="simple" x="3619" y="1674" fill="#38B6FF"/><use xmlns:xlink="http://www.w3.org/1999/xlink" xlink:actuate="onLoad" xlink:href="#n" xlink:show="embed" xlink:type="simple" x="3708" y="1674" fill="#38B6FF"/><use xmlns:xlink="http://www.w3.org/1999/xlink" xlink:actuate="onLoad" xlink:href="#t" xlink:show="embed" xlink:type="simple" x="3799" y="1674" fill="#38B6FF"/><use xmlns:xlink="http://www.w3.org/1999/xlink" xlink:actuate="onLoad" xlink:href="#n" xlink:show="embed" xlink:type="simple" x="3891" y="1674" fill="#38B6FF"/><use xmlns:xlink="http://www.w3.org/1999/xlink" xlink:actuate="onLoad" xlink:href="#C" xlink:show="embed" xlink:type="simple" x="3982" y="1674" fill="#38B6FF"/></svg>