<svg xmlns="http://www.w3.org/2000/svg" xmlns:xlink="http://www.w3.org/1999/xlink" width="6912" height="2592.000001pt" viewBox="0 0 5184 2592.000001" version="1.2"><defs><symbol overflow="visible" id="f"><path style="stroke:none" d="M17.5-133.203125h57.84375c13.832031 0 24.742188 2.953125 32.734375 8.859375 7.988281 5.898438 11.984375 14.046875 11.984375 24.453125 0 7.480469-2.09375 13.855469-6.28125 19.125-4.179688 5.261719-9.886719 8.777344-17.125 10.546875 8.882812 1.523438 15.863281 5.265625 20.9375 11.234375 5.070312 5.960937 7.609375 13.445313 7.609375 22.453125 0 11.417969-4.3125 20.359375-12.9375 26.828125S91.78125 0 76.6875 0H17.5Zm22.453125 19.984375v35.203125h34.25c7.101563 0 12.6875-1.582031 16.75-4.75 4.0625-3.175781 6.09375-7.554687 6.09375-13.140625 0-5.582031-2-9.863281-6-12.84375-3.992187-2.976562-9.605469-4.46875-16.84375-4.46875Zm0 55v38.234375h34.25c8.882813 0 15.769531-1.675781 20.65625-5.03125 4.882813-3.363281 7.328125-8.15625 7.328125-14.375 0-5.832031-2.476562-10.425781-7.421875-13.78125-4.949219-3.363281-11.804687-5.046875-20.5625-5.046875Zm0 0"/></symbol><symbol overflow="visible" id="g"><path style="stroke:none" d="M72.109375-44.328125V0h-22.25v-43.578125L.1875-133.203125h22.640625l38.0625 64.890625L98.1875-133.203125h22.828125Zm0 0"/></symbol><symbol overflow="visible" id="h"><path style="stroke:none" d="M39.953125-20.359375h57.65625V0H17.5v-133.203125h22.453125Zm0 0"/></symbol><symbol overflow="visible" id="i"><path style="stroke:none" d="M103.515625-30.0625H36.34375L23.59375 0H.1875l58.796875-133.203125h23.03125L140.234375 0h-23.96875Zm-8.5625-19.984375-25.125-59.171875L44.71875-50.046875Zm0 0"/></symbol><symbol overflow="visible" id="j"><path style="stroke:none" d="M76.5-133.765625c9.382812 0 18.546875 1.808594 27.484375 5.421875 8.945313 3.617188 16.65625 8.65625 23.125 15.125l-13.125 16.359375c-4.824219-5.195313-10.539063-9.316406-17.140625-12.359375-6.59375-3.039062-13.25-4.5625-19.96875-4.5625-13.324219 0-24.585938 4.539062-33.78125 13.609375-9.199219 9.0625-13.796875 20.125-13.796875 33.1875 0 13.199219 4.597656 24.335937 13.796875 33.40625 9.195312 9.0625 20.457031 13.59375 33.78125 13.59375 13.820312 0 26.191406-5.257813 37.109375-15.78125l13.3125 14.828125c-6.855469 6.730469-14.851563 12.0625-23.984375 16C94.1875-1.007812 84.992188.953125 75.734375.953125c-19.542969 0-35.976563-6.5-49.296875-19.5C13.125-31.554688 6.46875-47.632812 6.46875-66.78125c0-18.90625 6.753906-34.796875 20.265625-47.671875 13.507813-12.875 30.097656-19.3125 49.765625-19.3125Zm0 0"/></symbol><symbol overflow="visible" id="k"><path style="stroke:none" d="m106.359375 0-43.75-58.796875L39.953125-33.875V0H17.5v-133.203125h22.453125V-64.3125l63.5625-68.890625h26.453125l-51.578125 56.90625 55 76.296875Zm0 0"/></symbol><symbol overflow="visible" id="l"><path style="stroke:none" d="M76.875 0H53.65625L.578125-133.203125h24.15625L65.84375-24.921875l41.46875-108.28125h23.40625Zm0 0"/></symbol><symbol overflow="visible" id="m"><path style="stroke:none" d="M17.5-133.203125h53.09375c16.75 0 29.71875 3.96875 38.90625 11.90625 9.195312 7.929687 13.796875 19.121094 13.796875 33.578125 0 15.09375-4.601563 26.796875-13.796875 35.109375-9.1875 8.304687-22.15625 12.453125-38.90625 12.453125H39.953125V0H17.5Zm22.453125 20.171875v52.71875h29.6875c21.4375 0 32.15625-8.945312 32.15625-26.84375 0-17.25-10.71875-25.875-32.15625-25.875Zm0 0"/></symbol><symbol overflow="visible" id="n"><path style="stroke:none" d="M112.640625-113.03125h-72.6875v35.96875h65.078125v20.171875H39.953125v36.71875H114.9375V0H17.5v-133.203125h95.140625Zm0 0"/></symbol><symbol overflow="visible" id="o"><path style="stroke:none" d="m101.984375 0-24.34375-40.34375c-1.273437.125-3.304687.1875-6.09375.1875h-31.59375V0H17.5v-133.203125h54.046875c17 0 30.191406 3.96875 39.578125 11.90625 9.382812 7.929687 14.078125 19.121094 14.078125 33.578125 0 10.65625-2.382813 19.667969-7.140625 27.03125-4.75 7.355469-11.570312 12.742188-20.453125 16.15625L127.484375 0Zm-62.03125-60.3125h31.59375c21.5625 0 32.34375-8.945312 32.34375-26.84375 0-17.25-10.78125-25.875-32.34375-25.875h-31.59375Zm0 0"/></symbol><symbol overflow="visible" id="p"><path style="stroke:none" d="M61.265625-134.140625c17.257813 0 32.800781 4.5625 46.625 13.6875L98.5625-100.65625c-13.574219-8.25-26.574219-12.375-39-12.375-6.730469 0-12.03125 1.210938-15.90625 3.625-3.867188 2.40625-5.796875 5.828125-5.796875 10.265625S39.632812-90.925781 43.1875-87.8125c3.550781 3.105469 7.988281 5.386719 13.3125 6.84375 5.332031 1.460938 11.109375 3.304688 17.328125 5.53125 6.21875 2.21875 11.988281 4.5625 17.3125 7.03125 5.332031 2.46875 9.742187 6.339844 13.234375 11.609375 3.488281 5.261719 5.234375 11.636719 5.234375 19.125 0 11.667969-4.667969 20.992187-14 27.96875C86.285156-2.722656 74.207031.765625 59.375.765625c-10.15625 0-19.992188-1.898437-29.5-5.703125C20.363281-8.75 12.054688-13.890625 4.953125-20.359375l9.703125-19.40625c6.71875 6.21875 14.101562 11.011719 22.15625 14.375 8.0625 3.355469 15.707031 5.03125 22.9375 5.03125 7.863281 0 13.984375-1.425781 18.359375-4.28125 4.375-2.851563 6.5625-6.816406 6.5625-11.890625 0-4.570312-1.777344-8.410156-5.328125-11.515625-3.554688-3.101563-7.996094-5.382813-13.328125-6.84375-5.324219-1.457031-11.09375-3.234375-17.3125-5.328125-6.210937-2.09375-11.980469-4.3125-17.3125-6.65625-5.324219-2.351562-9.761719-6.128906-13.3125-11.328125C14.523438-83.398438 12.75-89.679688 12.75-97.046875c0-11.289063 4.4375-20.296875 13.3125-27.015625 8.882812-6.71875 20.617188-10.078125 35.203125-10.078125Zm0 0"/></symbol><symbol overflow="visible" id="q"><path style="stroke:none" d="M108.453125-113.03125H66.21875V0H43.765625v-113.03125H1.71875v-20.171875h106.734375Zm0 0"/></symbol><symbol overflow="visible" id="r"><path style="stroke:none" d="M130.71875-133.203125V-55.1875c0 17.386719-5.140625 31.089844-15.421875 41.109375C105.023438-4.054688 90.882812.953125 72.875.953125c-18.011719 0-32.1875-5.007813-42.53125-15.03125-10.335938-10.019531-15.5-23.722656-15.5-41.109375v-78.015625h22.453125V-55.1875c0 11.167969 3.203125 19.953125 9.609375 26.359375s15.125 9.609375 26.15625 9.609375c10.914062 0 19.507812-3.171875 25.78125-9.515625 6.28125-6.34375 9.421875-15.160156 9.421875-26.453125v-78.015625Zm0 0"/></symbol><symbol overflow="visible" id="s"><path style="stroke:none" d="M17.5-133.203125h54.609375c19.914063 0 36.375 6.28125 49.375 18.84375C134.492188-101.796875 141-85.875 141-66.59375s-6.539062 35.203125-19.609375 47.765625C108.328125-6.273438 91.710938 0 71.546875 0H17.5Zm22.453125 20.171875v92.859375H72.6875c13.0625 0 23.9375-4.34375 32.625-13.03125 8.695312-8.6875 13.046875-19.753906 13.046875-33.203125 0-13.445312-4.476563-24.578125-13.421875-33.390625C96-108.617188 84.929688-113.03125 71.734375-113.03125Zm0 0"/></symbol><symbol overflow="visible" id="t"><path style="stroke:none" d="M39.953125 0H17.5v-133.203125h22.453125Zm0 0"/></symbol><symbol overflow="visible" id="u"><path style="stroke:none" d="M26.828125-114.453125c13.570313-12.875 30.316406-19.3125 50.234375-19.3125 19.914062 0 36.660156 6.4375 50.234375 19.3125 13.570313 12.875 20.359375 28.828125 20.359375 47.859375 0 19.023438-6.789062 35.039062-20.359375 48.046875-13.574219 13-30.320313 19.5-50.234375 19.5-19.917969 0-36.664062-6.5-50.234375-19.5C13.253906-31.554688 6.46875-47.570312 6.46875-66.59375c0-19.03125 6.785156-34.984375 20.359375-47.859375ZM77.25-113.59375c-13.1875 0-24.480469 4.539062-33.875 13.609375-9.386719 9.0625-14.078125 20.195313-14.078125 33.390625 0 13.1875 4.722656 24.382812 14.171875 33.578125C52.925781-23.816406 64.1875-19.21875 77.25-19.21875c13.070312 0 24.238281-4.597656 33.5-13.796875 9.257812-9.195313 13.890625-20.390625 13.890625-33.578125 0-13.195312-4.632813-24.328125-13.890625-33.390625-9.261719-9.070313-20.429688-13.609375-33.5-13.609375Zm0 0"/></symbol><symbol overflow="visible" id="b"><path style="stroke:none" d="M191.414062-789.332031c-91.761718 0-142.082031 49.332031-142.082031 142.078125v232.855468c0 18.746094 8.882813 30.585938 26.640625 36.503907L309.8125-300.933594v131.226563c0 26.640625-13.8125 39.46875-39.464844 39.46875h-47.359375c-24.667969 0-39.46875-12.828125-39.46875-39.46875v-75.972657c0-10.851562-4.933593-15.785156-15.785156-15.785156H65.121094c-9.867188 0-15.789063 4.933594-15.789063 15.785156v103.601563C49.332031-49.332031 99.652344 0 191.414062 0h110.503907C394.667969 0 444-49.332031 444-142.078125V-370c0-18.746094-8.878906-29.597656-25.652344-36.507812l-234.828125-76.957032V-619.625c0-25.652344 14.800781-39.46875 39.46875-39.46875h47.359375c26.636719 0 39.464844 13.816406 39.464844 39.46875v76.960938c0 9.863281 5.921875 15.785156 15.785156 15.785156h102.613282c10.855468 0 15.789062-5.921875 15.789062-15.785156v-104.589844C444-740 394.667969-789.332031 301.917969-789.332031Zm0 0"/></symbol><symbol overflow="visible" id="c"><path style="stroke:none" d="M352.238281-789.332031c-10.851562 0-15.785156 5.917969-15.785156 15.785156v416.375h-5.921875L180.558594-776.503906c-2.957032-8.882813-8.878906-12.828125-17.757813-12.828125H65.121094c-9.867188 0-15.789063 5.917969-15.789063 15.785156v757.761719C49.332031-5.921875 55.253906 0 65.121094 0h102.613281c10.851563 0 15.785156-5.921875 15.785156-15.785156v-418.347656h4.933594L339.414062-12.828125C342.371094-3.945312 348.292969 0 357.171875 0h97.679687c9.867188 0 15.789063-5.921875 15.789063-15.785156v-757.761719c0-9.867187-5.921875-15.785156-15.789063-15.785156Zm0 0"/></symbol><symbol overflow="visible" id="d"><path style="stroke:none" d="M443.011719-773.546875c0-9.867187-3.945313-15.785156-15.785157-15.785156H64.132812c-8.878906 0-14.800781 5.917969-14.800781 15.785156v757.761719C49.332031-5.921875 55.253906 0 64.132812 0h363.09375c11.839844 0 15.785157-5.921875 15.785157-15.785156v-98.667969c0-10.851563-3.945313-15.785156-15.785157-15.785156H180.558594v-199.308594h188.453125c9.867187 0 15.789062-5.917969 15.789062-16.773437V-444c0-10.851562-5.921875-16.773438-15.789062-16.773438H180.558594v-197.332031h246.667968c11.839844 0 15.785157-6.90625 15.785157-16.773437Zm0 0"/></symbol><symbol overflow="visible" id="e"><path style="stroke:none" d="M471.625 0c15.789062 0 21.707031-9.867188 14.800781-22.691406L307.839844-421.304688l167.734375-344.347656c6.90625-13.8125.984375-23.679687-13.816407-23.679687H358.160156c-10.855468 0-17.761718 4.933593-22.695312 14.800781L183.519531-463.734375v-305.863281c0-12.828125-6.90625-19.734375-19.734375-19.734375h-94.71875c-12.828125 0-19.734375 6.90625-19.734375 19.734375v749.863281C49.332031-6.90625 56.238281 0 69.066406 0h94.71875c12.828125 0 19.734375-6.90625 19.734375-19.734375v-218.050781l36.507813-70.054688L344.347656-14.800781C348.292969-4.933594 355.199219 0 367.039062 0Zm0 0"/></symbol><clipPath id="a"><path d="M261 500.734375h1431v1589.246094H261Zm0 0"/></clipPath></defs><path style="stroke:none;fill-rule:nonzero;fill:#dd3e46;fill-opacity:1" d="M1665.449219 871.558594h-238.476563c-14.59375 0-26.496094-11.898438-26.496094-26.488282 0-14.589843 11.902344-26.488281 26.496094-26.488281h238.476563c14.59375 0 26.496093 11.898438 26.496093 26.488281 0 14.589844-11.902343 26.488282-26.496093 26.488282"/><path style="stroke:none;fill-rule:nonzero;fill:#55b56a;fill-opacity:1" d="M499.566406 1825.105469H340.582031v-423.800781c0-43.867188 35.605469-79.460938 79.492188-79.460938s79.492187 35.59375 79.492187 79.460938v423.800781"/><path style="stroke:none;fill-rule:nonzero;fill:#55b56a;fill-opacity:1" d="M1400.476562 2063.492188H393.578125c-58.480469 0-105.988281-47.492188-105.988281-105.949219v-79.464844c0-58.5625 47.507812-105.949219 105.988281-105.949219h1006.898437c58.582032 0 105.988282 47.386719 105.988282 105.949219v79.464844c0 58.457031-47.40625 105.949219-105.988282 105.949219M1185.804688 686.144531c1.761718-8.585937 2.691406-17.382812 2.691406-26.488281 0-73.148438-59.308594-132.4375-132.484375-132.4375-73.179688 0-132.488281 59.289062-132.488281 132.4375 0 9.105469.933593 17.902344 2.691406 26.488281h-29.1875c-58.585938 0-105.988282 47.386719-105.988282 105.949219v688.675781H1162v-529.75h105.988281c131.660157 0 238.476563-106.777343 238.476563-238.386719v-26.488281h-320.660156"/><path style="stroke:none;fill-rule:nonzero;fill:#318942;fill-opacity:1" d="M1347.480469 1772.128906H605.554688c-58.582032 0-105.988282-47.386718-105.988282-105.949218v-79.460938c0-58.5625 47.40625-105.949219 105.988282-105.949219h741.925781c58.585937 0 105.988281 47.386719 105.988281 105.949219v79.460938c0 58.5625-47.402344 105.949218-105.988281 105.949218"/><path style="stroke:none;fill-rule:nonzero;fill:#cfdfe8;fill-opacity:1" d="M1003.015625 1162.917969H1162V951.019531h-158.984375v211.898438"/><path style="stroke:none;fill-rule:nonzero;fill:#cfdfe8;fill-opacity:1" d="M1003.015625 1268.867188H1162v-105.949219h-158.984375v105.949219"/><path style="stroke:none;fill-rule:nonzero;fill:#7d8d9c;fill-opacity:1" d="M1003.015625 1162.917969H1162V1056.96875h-158.984375v105.949219m0 211.898437H1162v-105.949218h-158.984375v105.949218"/><path style="stroke:none;fill-rule:nonzero;fill:#cfdfe8;fill-opacity:1" d="M1003.015625 1480.769531H1162v-105.953125h-158.984375v105.953125"/><path style="stroke:none;fill-rule:nonzero;fill:#ffd782;fill-opacity:1" d="M499.566406 1560.230469H340.582031V1454.28125h158.984375v105.949219"/><path style="stroke:none;fill-rule:nonzero;fill:#4b9b58;fill-opacity:1" d="M499.566406 1666.179688H340.582031v-105.949219h158.984375v105.949219"/><path style="stroke:none;fill-rule:nonzero;fill:#ffd782;fill-opacity:1" d="M764.539062 1586.71875c58.585938 0 105.988282-47.386719 105.988282-105.949219H658.550781c0 58.5625 47.40625 105.949219 105.988281 105.949219m397.460938 0c58.582031 0 105.988281-47.386719 105.988281-105.949219h-211.976562c0 58.5625 47.402343 105.949219 105.988281 105.949219m-185.480469 79.460938c-58.585937 0-105.992187 47.386718-105.992187 105.949218h211.980468c0-58.5625-47.40625-105.949218-105.988281-105.949218"/><path style="stroke:none;fill-rule:nonzero;fill:#f9aa1e;fill-opacity:1" d="M526.0625 1878.078125c58.585938 0 105.992188-47.386719 105.992188-105.949219H420.074219c0 58.5625 47.40625 105.949219 105.988281 105.949219m450.457031 0c58.582031 0 105.988281-47.386719 105.988281-105.949219H870.527344c0 58.5625 47.40625 105.949219 105.992187 105.949219"/><path style="stroke:none;fill-rule:nonzero;fill:#ffd782;fill-opacity:1" d="M738.042969 1957.542969c-58.585938 0-105.988281 47.488281-105.988281 105.949219H844.03125c0-58.460938-47.40625-105.949219-105.988281-105.949219m503.449219 0c-58.585938 0-105.988282 47.488281-105.988282 105.949219h211.976563c0-58.460938-47.40625-105.949219-105.988281-105.949219"/><path style="stroke:none;fill-rule:nonzero;fill:#f98c96;fill-opacity:1" d="M976.519531 818.582031h-52.996093c-14.59375 0-26.496094-11.898437-26.496094-26.488281 0-14.585938 11.902344-26.488281 26.496094-26.488281h52.996093c14.59375 0 26.496094 11.902343 26.496094 26.488281 0 14.589844-11.902344 26.488281-26.496094 26.488281"/><path style="stroke:none;fill-rule:nonzero;fill:#143441;fill-opacity:1" d="M1082.507812 686.144531h-52.996093c-14.59375 0-26.496094-11.898437-26.496094-26.488281 0-14.585938 11.902344-26.484375 26.496094-26.484375h52.996093c14.59375 0 26.496094 11.898437 26.496094 26.484375 0 14.589844-11.902344 26.488281-26.496094 26.488281"/><path style="stroke:none;fill-rule:nonzero;fill:#000;fill-opacity:1" d="M976.519531 765.605469h-52.996093c-14.59375 0-26.496094 11.902343-26.496094 26.488281 0 14.589844 11.902344 26.488281 26.496094 26.488281h52.996093c14.59375 0 26.496094-11.898437 26.496094-26.488281 0-14.585938-11.902344-26.488281-26.496094-26.488281m105.988281-132.433594h-52.996093c-14.59375 0-26.496094 11.898437-26.496094 26.484375 0 14.589844 11.902344 26.488281 26.496094 26.488281h52.996093c14.59375 0 26.496094-11.898437 26.496094-26.488281 0-14.585938-11.902344-26.484375-26.496094-26.484375"/><g clip-path="url(#a)"><path style="stroke:none;fill-rule:nonzero;fill:#000;fill-opacity:1" d="M1267.988281 924.53125h-264.972656c-14.59375 0-26.496094 11.898438-26.496094 26.488281v503.261719H817.535156v-662.1875c0-43.867188 35.605469-79.460938 79.492188-79.460938h29.1875c7.96875 0 15.421875-3.621093 20.496094-9.726562 5.070312-6.105469 7.035156-14.277344 5.484374-22.039062-1.449218-7.035157-2.175781-14.070313-2.175781-21.210938 0-58.457031 47.511719-105.949219 105.992188-105.949219S1162 601.199219 1162 659.65625c0 7.140625-.726562 14.175781-2.175781 21.210938-1.550781 7.761718.414062 15.933593 5.488281 22.039062 5.070312 6.105469 12.523438 9.726562 20.492188 9.726562h294.164062c0 116.8125-95.121094 211.898438-211.980469 211.898438Zm-238.476562 529.75v-52.976562h105.992187v52.976562ZM1162 1560.230469c-34.570312 0-63.964844-22.140625-74.9375-52.976563h149.875c-10.972656 30.835938-40.367188 52.976563-74.9375 52.976563Zm-26.496094-529.75h-105.992187v-52.972657h105.992187Zm-105.992187 264.875h105.992187v52.976562h-105.992187Zm105.992187-52.972657h-105.992187v-52.976562h105.992187Zm0-105.953124h-105.992187v-52.972657h105.992187Zm291.46875 450.289062v79.460938c0 43.871093-35.605468 79.460937-79.492187 79.460937H1106.3125c-12.316406-60.421875-65.828125-105.949219-129.792969-105.949219-63.96875 0-117.480469 45.527344-129.796875 105.949219H605.554688c-43.886719 0-79.492188-35.589844-79.492188-79.460937v-79.460938c0-43.871094 35.605469-79.464844 79.492188-79.464844h29.191406c12.316406 60.425782 65.828125 105.953125 129.792968 105.953125 63.96875 0 117.480469-45.527343 129.796876-105.953125h137.867187c12.316406 60.425782 65.832031 105.953125 129.796875 105.953125s117.476562-45.527343 129.796875-105.953125h55.683594c43.886719 0 79.492187 35.59375 79.492187 79.464844Zm-375.515625 211.898438c-10.972656 30.832031-40.367187 52.976562-74.9375 52.976562-34.570312 0-63.96875-22.144531-74.9375-52.976562Zm-149.875-52.976563c10.96875-30.832031 40.367188-52.972656 74.9375-52.972656 34.570313 0 63.964844 22.140625 74.9375 52.972656Zm578.386719 132.4375v79.464844c0 43.867187-35.605469 79.460937-79.492188 79.460937h-29.1875c-12.320312-60.425781-65.832031-105.949218-129.796874-105.949218-63.964844 0-117.480469 45.523437-129.796876 105.949218H867.839844c-12.320313-60.425781-65.832032-105.949218-129.796875-105.949218-63.964844 0-117.480469 45.523437-129.796875 105.949218H393.578125c-43.886719 0-79.492187-35.59375-79.492187-79.460937v-79.464844c0-43.867187 35.605468-79.460937 79.492187-79.460937h2.691406c12.316407 60.425781 65.828125 105.949218 129.792969 105.949218 63.96875 0 117.480469-45.523437 129.796875-105.949218h190.863281c12.316406 60.425781 65.828125 105.949218 129.796875 105.949218 63.964844 0 117.476563-45.523437 129.792969-105.949218h294.164062c43.886719 0 79.492188 35.59375 79.492188 79.460937Zm-313.414062 158.925781c10.972656-30.832031 40.367187-52.972656 74.9375-52.972656 34.570312 0 63.964843 22.140625 74.9375 52.972656Zm-503.449219 0c10.972656-30.832031 40.367187-52.972656 74.9375-52.972656 34.570312 0 63.964843 22.140625 74.9375 52.972656Zm-296.023438-291.363281v-52.972656h105.988281v52.972656Zm52.992188-397.308594c29.1875 0 52.996093 23.796875 52.996093 52.972657v26.488281H367.082031v-26.488281c0-29.175782 23.804688-52.972657 52.992188-52.972657Zm-52.992188 238.386719h105.988281v52.972656H367.082031Zm0-105.949219h105.988281v52.972657H367.082031ZM601 1798.617188c-10.96875 30.832031-40.363281 52.976562-74.9375 52.976562-34.570312 0-63.964844-22.144531-74.9375-52.976562Zm238.476562-291.363282c-10.96875 30.835938-40.367187 52.976563-74.9375 52.976563-34.570312 0-63.964843-22.140625-74.9375-52.976563Zm825.972657-688.671875h-154.742188c14.285157-32.488281 22.253907-68.289062 22.253907-105.949219v-26.488281c0-14.589843-11.902344-26.488281-26.496094-26.488281h-291.46875c0-87.636719-71.316406-158.921875-158.984375-158.921875-87.671875 0-158.984375 71.285156-158.984375 158.921875-73.074219 0-132.488282 59.390625-132.488282 132.4375v662.1875H605.554688c-29.910157 0-57.238282 10.347656-79.492188 27.210938v-80.1875c0-58.457032-47.507812-105.949219-105.988281-105.949219s-105.988281 47.492187-105.988281 105.949219v370.824218c0 .207032.101562.414063.101562.621094-32.085938 24.109375-53.097656 62.183594-53.097656 105.328125v79.464844c0 73.046875 59.414062 132.4375 132.488281 132.4375h1006.898437c73.074219 0 132.484376-59.390625 132.484376-132.4375v-79.464844c0-57.007813-36.535157-105.328125-87.148438-123.953125 21.011719-23.484375 34.15625-54.007812 34.15625-87.945312v-79.460938c0-73.046875-59.414062-132.4375-132.488281-132.4375h-158.984375V977.507812h79.492187c86.425781 0 163.125-41.800781 211.566407-106.054687.101562 0 .207031.105469.414062.105469h185.480469c14.59375 0 26.496093-11.898438 26.496093-26.488282 0-14.589843-11.902343-26.488281-26.496093-26.488281"/></g><use xlink:href="#b" x="1777.703107" y="1572.911527" style="fill:#008037;fill-opacity:1"/><use xlink:href="#c" x="2290.769321" y="1572.911527" style="fill:#008037;fill-opacity:1"/><use xlink:href="#d" x="2830.475592" y="1572.911527" style="fill:#008037;fill-opacity:1"/><use xlink:href="#e" x="3342.555141" y="1572.911527" style="fill:#008037;fill-opacity:1"/><use xlink:href="#f" x="1777.703107" y="1964.264953" style="fill:#7ed957;fill-opacity:1"/><use xlink:href="#g" x="1934.873087" y="1964.264953" style="fill:#7ed957;fill-opacity:1"/><use xlink:href="#h" x="2078.913929" y="1964.264953" style="fill:#7ed957;fill-opacity:1"/><use xlink:href="#f" x="2150.839711" y="1964.264953" style="fill:#7ed957;fill-opacity:1"/><use xlink:href="#h" x="2308.009682" y="1964.264953" style="fill:#7ed957;fill-opacity:1"/><use xlink:href="#i" x="2432.451978" y="1964.264953" style="fill:#7ed957;fill-opacity:1"/><use xlink:href="#j" x="2595.710823" y="1964.264953" style="fill:#7ed957;fill-opacity:1"/><use xlink:href="#k" x="2751.168359" y="1964.264953" style="fill:#7ed957;fill-opacity:1"/><use xlink:href="#l" x="2910.621666" y="1964.264953" style="fill:#7ed957;fill-opacity:1"/><use xlink:href="#g" x="3064.747172" y="1964.264953" style="fill:#7ed957;fill-opacity:1"/><use xlink:href="#m" x="3208.788028" y="1964.264953" style="fill:#7ed957;fill-opacity:1"/><use xlink:href="#n" x="3359.678837" y="1964.264953" style="fill:#7ed957;fill-opacity:1"/><use xlink:href="#o" x="3507.334952" y="1964.264953" style="fill:#7ed957;fill-opacity:1"/><use xlink:href="#p" x="3667.739558" y="1964.264953" style="fill:#7ed957;fill-opacity:1"/><use xlink:href="#q" x="3808.926174" y="1964.264953" style="fill:#7ed957;fill-opacity:1"/><use xlink:href="#r" x="3941.930858" y="1964.264953" style="fill:#7ed957;fill-opacity:1"/><use xlink:href="#s" x="4110.136945" y="1964.264953" style="fill:#7ed957;fill-opacity:1"/><use xlink:href="#t" x="4280.436144" y="1964.264953" style="fill:#7ed957;fill-opacity:1"/><use xlink:href="#u" x="4360.734086" y="1964.264953" style="fill:#7ed957;fill-opacity:1"/><use xlink:href="#p" x="4537.692953" y="1964.264953" style="fill:#7ed957;fill-opacity:1"/></svg>